<?xml version="1.0" encoding="UTF-8"?>
<!DOCTYPE svg PUBLIC "-//W3C//DTD SVG 1.1//EN" "http://www.w3.org/Graphics/SVG/1.1/DTD/svg11.dtd">
<!-- Creator: CorelDRAW X7 -->
<svg xmlns="http://www.w3.org/2000/svg" xml:space="preserve" width="46mm" height="20mm" version="1.1" style="shape-rendering:geometricPrecision; text-rendering:geometricPrecision; image-rendering:optimizeQuality; fill-rule:evenodd; clip-rule:evenodd"
viewBox="0 0 4600 2000"
 xmlns:xlink="http://www.w3.org/1999/xlink">
 <defs>
  <style type="text/css">
   <![CDATA[
    .fil0 {fill:#4D4D4D}
    .fil2 {fill:#4D4D4D;fill-rule:nonzero}
    .fil1 {fill:white;fill-rule:nonzero}
   ]]>
  </style>
 </defs>
 <g id="Layer_x0020_1">
  <metadata id="CorelCorpID_0Corel-Layer"/>
  <circle class="fil0" cx="1037" cy="1000" r="800"/>
  <polygon class="fil1" points="650,929 650,583 714,583 714,878 859,878 857,929 "/>
  <path id="1" class="fil1" d="M898 929l0 -260 62 0 0 260 -62 0zm0 -298l0 -52 63 0 0 52 -63 0z"/>
  <path id="2" class="fil1" d="M1098 929l-104 -260 66 0c2,7 10,29 24,66 13,37 22,62 27,76 8,26 15,45 19,59 0,0 1,-5 4,-15 3,-11 5,-20 8,-29 2,-9 4,-14 4,-16 0,0 8,-22 22,-65 14,-43 23,-69 25,-76l65 0 -98 260 -62 0z"/>
  <path id="3" class="fil1" d="M1291 929l0 -260 52 0 8 40c17,-27 41,-41 74,-41 6,0 12,0 16,1l-1 52c-6,-1 -13,-2 -19,-2 -23,0 -40,6 -51,18 -12,13 -17,29 -17,51l0 141 -62 0z"/>
  <path id="4" class="fil1" d="M1590 887c21,0 36,-8 47,-23 10,-15 16,-37 16,-66 0,-29 -6,-51 -16,-66 -11,-15 -27,-22 -48,-22 -21,0 -36,7 -47,22 -11,16 -16,38 -16,66 0,29 5,51 16,66 11,15 27,23 48,23zm-2 47c-38,0 -69,-13 -91,-38 -22,-25 -33,-57 -33,-98 0,-42 11,-75 33,-99 22,-24 54,-36 94,-36 38,0 69,12 91,37 22,24 33,57 33,98 0,42 -11,74 -34,99 -22,24 -53,37 -93,37z"/>
  <path class="fil2" d="M1998 943c-34,0 -60,-12 -80,-37 -19,-25 -29,-58 -29,-100 0,-40 10,-73 29,-97 20,-25 46,-37 80,-37 37,0 63,13 78,39 -1,-15 -2,-30 -2,-44l0 -84 62 -4 0 359 -54 0 -7 -35c-2,4 -5,8 -7,11 -3,3 -6,6 -10,10 -5,4 -9,7 -15,10 -5,2 -11,4 -19,6 -8,2 -16,3 -26,3zm15 -47c41,0 63,-28 63,-85 0,-32 -5,-55 -16,-70 -11,-14 -27,-22 -48,-22 -18,0 -33,8 -44,23 -11,15 -17,37 -17,65 0,29 6,51 17,66 11,15 26,23 45,23z"/>
  <path id="1" class="fil2" d="M2319 943c-42,0 -74,-12 -98,-36 -23,-24 -35,-57 -35,-100 0,-41 11,-74 33,-98 22,-24 52,-37 90,-37 35,0 63,11 83,34 20,22 30,52 30,89 0,2 0,7 0,13 -1,6 -1,10 -1,13l-172 0c0,24 7,43 20,56 12,14 30,20 52,20 28,0 56,-7 82,-22l8 44c-25,16 -56,24 -92,24zm-69 -161l113 0c0,-21 -4,-37 -14,-49 -10,-11 -23,-17 -40,-17 -16,0 -29,6 -40,17 -11,11 -17,27 -19,49z"/>
  <polygon id="2" class="fil2" points="1908,1457 1908,1111 2117,1111 2115,1162 1972,1162 1972,1251 2108,1251 2108,1302 1972,1302 1972,1406 2120,1406 2118,1457 "/>
  <path id="3" class="fil2" d="M2265 1461c-18,0 -33,-3 -45,-7 -11,-4 -21,-10 -27,-20 -7,-9 -12,-20 -15,-32 -2,-13 -4,-28 -4,-47l0 -253 62 -4 0 256c0,23 3,39 9,47 5,8 16,12 32,12 8,0 18,-1 30,-2l1 44c0,0 -2,0 -5,1 -4,1 -8,2 -11,2 -4,1 -8,1 -13,2 -5,0 -10,1 -14,1z"/>
  <path id="4" class="fil2" d="M2451 1415c21,0 36,-8 47,-23 10,-15 16,-37 16,-66 0,-28 -6,-50 -16,-65 -11,-16 -27,-23 -48,-23 -21,0 -37,7 -47,23 -11,15 -16,37 -16,66 0,28 5,50 16,65 11,15 27,23 48,23zm-2 47c-38,0 -69,-12 -91,-37 -22,-25 -33,-58 -33,-99 0,-41 11,-74 33,-99 22,-24 53,-36 94,-36 38,0 69,12 91,37 22,25 33,58 33,98 0,42 -12,75 -34,99 -22,25 -53,37 -93,37z"/>
  <path id="5" class="fil2" d="M2678 1573l-4 -50 32 0c36,0 62,-5 76,-14 15,-10 22,-28 22,-54 0,-10 -1,-22 -2,-34 -4,6 -8,10 -11,14 -4,4 -9,8 -14,11 -6,4 -12,7 -20,8 -8,2 -17,3 -27,3 -34,0 -62,-12 -84,-37 -23,-25 -34,-57 -34,-96 0,-20 3,-39 10,-56 6,-18 14,-32 25,-43 10,-11 22,-19 36,-25 14,-6 29,-9 44,-9 35,0 61,13 78,38l4 -31 55 0 0 241c0,13 0,24 -2,34 -1,11 -3,21 -6,30 -3,10 -7,18 -13,25 -5,7 -11,14 -19,19 -8,6 -17,11 -27,15 -11,3 -23,6 -37,8 -13,2 -29,3 -46,3l-36 0zm62 -159c43,0 64,-29 65,-86l0 -9c0,-25 -6,-45 -16,-59 -11,-14 -26,-21 -46,-22 -22,0 -40,8 -51,24 -12,15 -18,36 -18,62 0,26 6,47 18,64 12,17 28,26 48,26z"/>
  <path id="6" class="fil2" d="M2927 1457l0 -259 62 0 0 259 -62 0zm0 -297l0 -53 62 0 0 53 -62 0z"/>
  <path id="7" class="fil2" d="M3166 1415c21,0 37,-8 47,-23 11,-15 16,-37 16,-66 0,-28 -5,-50 -16,-65 -10,-16 -26,-23 -47,-23 -21,0 -37,7 -48,23 -10,15 -16,37 -16,66 0,28 6,50 16,65 11,15 27,23 48,23zm-2 47c-38,0 -68,-12 -90,-37 -22,-25 -33,-58 -33,-99 0,-41 11,-74 33,-99 22,-24 53,-36 93,-36 39,0 69,12 91,37 22,25 33,58 33,98 0,42 -11,75 -33,99 -23,25 -54,37 -94,37z"/>
  <path id="8" class="fil2" d="M3424 1462c-38,0 -68,-7 -91,-20l6 -46c10,5 24,10 40,15 16,4 30,7 44,7 13,0 24,-3 32,-8 7,-5 11,-13 11,-23 0,-9 -3,-16 -11,-21 -7,-5 -20,-12 -41,-19 -6,-3 -11,-4 -13,-5 -24,-9 -41,-20 -52,-31 -10,-12 -16,-27 -16,-47 0,-23 9,-41 26,-54 17,-13 41,-19 72,-19 33,0 62,6 87,19l-16 43c-24,-12 -48,-18 -70,-18 -13,0 -22,2 -29,7 -7,4 -11,10 -11,19 0,8 3,14 10,18 7,5 20,11 40,18 1,0 3,1 6,2 3,1 6,2 8,3 24,9 41,19 52,31 12,12 17,28 17,47 0,26 -9,46 -26,61 -18,14 -43,21 -75,21z"/>
  <path class="fil2" d="M1967 1807c-9,0 -18,-2 -25,-6 -7,-3 -13,-8 -16,-13l-3 17 -27 0 0 -181 31 -2 0 41c0,8 0,17 -1,27 11,-14 25,-21 41,-21 17,0 30,6 40,19 10,13 14,29 14,49 0,21 -5,38 -14,51 -10,13 -24,19 -40,19zm-8 -24c9,0 17,-3 23,-11 5,-8 8,-20 8,-34 0,-15 -3,-26 -8,-34 -6,-7 -13,-11 -23,-11 -21,0 -32,14 -32,43 0,16 3,28 8,36 5,8 13,11 24,11z"/>
  <path id="1" class="fil2" d="M2105 1783c11,0 19,-3 24,-11 5,-8 8,-19 8,-34 0,-14 -3,-26 -8,-33 -5,-8 -13,-12 -24,-12 -11,0 -19,4 -24,12 -6,7 -9,19 -9,33 0,15 3,26 9,34 5,8 13,11 24,11zm-1 24c-19,0 -35,-6 -46,-19 -11,-12 -17,-29 -17,-50 0,-21 6,-38 17,-50 11,-13 27,-19 47,-19 20,0 36,7 47,19 11,13 17,29 17,50 0,21 -6,38 -17,51 -12,12 -27,18 -48,18z"/>
  <path id="2" class="fil2" d="M2252 1783c11,0 19,-3 24,-11 6,-8 8,-19 8,-34 0,-14 -2,-26 -8,-33 -5,-8 -13,-12 -24,-12 -11,0 -19,4 -24,12 -6,7 -8,19 -8,33 0,15 2,26 8,34 5,8 13,11 24,11zm-1 24c-19,0 -35,-6 -46,-19 -11,-12 -17,-29 -17,-50 0,-21 6,-38 17,-50 11,-13 27,-19 48,-19 19,0 35,7 46,19 11,13 17,29 17,50 0,21 -6,38 -17,51 -11,12 -27,18 -48,18z"/>
  <path id="3" class="fil2" d="M2342 1805l0 -181 31 -2 0 81 0 27c0,0 0,-1 2,-3 2,-1 2,-2 3,-2 4,-5 9,-11 14,-16 5,-6 12,-13 20,-21 8,-8 13,-13 15,-16l38 0 -55 57 58 76 -38 0 -44 -60 -13 10 0 50 -31 0z"/>
  <path id="4" class="fil2" d="M2606 1783c11,0 19,-3 24,-11 6,-8 8,-19 8,-34 0,-14 -2,-26 -8,-33 -5,-8 -13,-12 -24,-12 -11,0 -19,4 -24,12 -6,7 -9,19 -9,33 0,15 3,26 9,34 5,8 13,11 24,11zm-1 24c-19,0 -35,-6 -46,-19 -11,-12 -17,-29 -17,-50 0,-21 6,-38 17,-50 11,-13 27,-19 48,-19 19,0 35,7 46,19 11,13 17,29 17,50 0,21 -6,38 -17,51 -12,12 -27,18 -48,18z"/>
  <path id="5" class="fil2" d="M2704 1805l0 -112 -21 0 2 -18 19 -3 0 -7c0,-8 1,-15 2,-20 2,-6 4,-11 7,-15 4,-4 8,-7 14,-9 6,-2 13,-3 21,-3 8,0 16,1 25,2l-3 24c-7,-1 -12,-2 -16,-2 -7,0 -11,2 -14,5 -3,4 -4,9 -4,16l0 9 31 0 0 21 -31 0 0 112 -32 0z"/>
  <path id="6" class="fil2" d="M2910 1807c-20,0 -36,-6 -47,-18 -11,-12 -17,-29 -17,-51 0,-22 6,-39 18,-51 12,-12 27,-18 47,-18 15,0 28,4 39,10l-8 23c-10,-6 -21,-9 -30,-9 -11,0 -19,4 -25,12 -6,7 -9,18 -9,33 0,15 3,26 9,34 6,8 14,11 25,11 12,0 23,-3 34,-10l3 24c-6,4 -12,6 -18,8 -5,2 -13,2 -21,2z"/>
  <path id="7" class="fil2" d="M3031 1783c10,0 18,-3 24,-11 5,-8 8,-19 8,-34 0,-14 -3,-26 -8,-33 -6,-8 -14,-12 -25,-12 -10,0 -18,4 -24,12 -5,7 -8,19 -8,33 0,15 3,26 8,34 6,8 14,11 25,11zm-1 24c-20,0 -35,-6 -47,-19 -11,-12 -16,-29 -16,-50 0,-21 5,-38 16,-50 12,-13 28,-19 48,-19 20,0 35,7 47,19 11,13 16,29 16,50 0,21 -5,38 -17,51 -11,12 -27,18 -47,18z"/>
  <path id="8" class="fil2" d="M3120 1805l0 -133 26 0 3 17c2,-2 3,-3 5,-5 1,-2 3,-3 6,-5 3,-2 5,-4 8,-5 3,-1 7,-3 11,-3 5,-1 9,-2 14,-2 11,0 19,2 25,7 7,4 11,9 14,15 4,-7 10,-13 18,-16 8,-4 16,-6 25,-6 15,0 27,5 34,13 7,9 10,21 10,38l0 85 -31 0 0 -75c0,-13 -2,-23 -5,-28 -3,-6 -8,-9 -16,-9 -12,0 -21,6 -27,17 -2,5 -3,11 -4,17l0 78 -32 0 0 -77c0,-11 -1,-20 -4,-26 -4,-6 -9,-9 -17,-9 -7,0 -13,2 -18,5 -4,4 -8,8 -11,14 -1,8 -2,17 -2,29l0 64 -32 0z"/>
  <path id="9" class="fil2" d="M3350 1860l0 -188 28 0 3 19c4,-7 10,-12 17,-16 7,-4 15,-6 24,-6 11,0 21,3 29,9 8,6 14,14 19,25 4,10 6,22 6,35 0,21 -5,37 -15,50 -10,13 -23,19 -40,19 -9,0 -16,-1 -23,-5 -7,-3 -12,-7 -17,-13 1,11 1,18 1,19l0 50 -32 2zm64 -77c9,0 17,-4 22,-11 6,-8 8,-20 8,-34 0,-15 -2,-26 -8,-34 -5,-7 -13,-11 -23,-11 -20,0 -31,14 -31,43 0,16 2,28 8,36 5,8 13,11 24,11z"/>
  <path id="10" class="fil2" d="M3548 1807c-9,0 -16,-1 -22,-3 -6,-3 -11,-6 -15,-11 -3,-4 -5,-10 -7,-16 -1,-7 -2,-15 -2,-24l0 -129 32 -2 0 130c0,12 1,20 4,24 3,5 8,7 16,7 4,0 9,-1 16,-2l0 23c0,0 -1,0 -2,0 -2,1 -4,1 -6,1 -2,1 -4,1 -7,1 -2,1 -5,1 -7,1z"/>
  <path id="11" class="fil2" d="M3587 1805l0 -133 31 0 0 133 -31 0zm0 -152l0 -27 32 0 0 27 -32 0z"/>
  <path id="12" class="fil2" d="M3651 1805l0 -133 26 0 3 17c2,-2 4,-3 5,-5 2,-2 4,-3 6,-5 3,-2 6,-4 9,-5 2,-1 6,-3 10,-3 5,-1 9,-2 14,-2 11,0 19,2 25,7 7,4 11,9 14,15 5,-7 11,-13 18,-16 8,-4 16,-6 25,-6 16,0 27,5 34,13 7,9 10,21 10,38l0 85 -31 0 0 -75c0,-13 -2,-23 -4,-28 -3,-6 -9,-9 -17,-9 -12,0 -21,6 -26,17 -3,5 -4,11 -5,17l0 78 -31 0 0 -77c0,-11 -2,-20 -5,-26 -3,-6 -9,-9 -17,-9 -7,0 -13,2 -17,5 -5,4 -9,8 -11,14 -2,8 -3,17 -3,29l0 64 -32 0z"/>
  <path id="13" class="fil2" d="M3943 1807c-21,0 -38,-6 -50,-18 -12,-12 -18,-29 -18,-51 0,-21 6,-37 17,-50 11,-12 26,-19 46,-19 18,0 32,6 42,17 10,12 15,27 15,46 0,1 0,3 0,6 0,3 0,6 0,7l-88 0c0,13 4,22 10,29 7,7 16,10 27,10 15,0 28,-4 42,-11l4 22c-13,8 -29,12 -47,12zm-35 -82l58 0c0,-10 -3,-19 -8,-25 -5,-5 -11,-8 -20,-8 -8,0 -15,3 -21,8 -5,6 -8,14 -9,25z"/>
  <path id="14" class="fil2" d="M4021 1805l0 -133 25 0 4 17c13,-13 28,-20 45,-20 15,0 27,5 35,14 7,8 11,21 11,38l0 84 -32 0 0 -80c0,-11 -1,-19 -5,-24 -3,-5 -9,-8 -18,-8 -7,0 -13,2 -19,5 -5,4 -10,8 -12,14 -2,6 -2,15 -2,28l0 65 -32 0z"/>
  <path id="15" class="fil2" d="M4225 1807c-9,0 -16,-1 -22,-3 -6,-3 -11,-6 -14,-10 -4,-5 -6,-10 -8,-17 -1,-6 -2,-14 -2,-23l0 -62 -21 0 1 -17 22 -3 11 -35 19 -1 0 36 33 0 0 20 -33 0 0 63c0,10 1,17 4,21 3,5 8,7 16,7 5,0 10,-1 15,-2l1 23c0,0 -1,0 -3,1 -2,0 -4,0 -5,1 -2,0 -4,0 -7,0 -2,1 -5,1 -7,1z"/>
  <path id="16" class="fil2" d="M4311 1807c-19,0 -35,-3 -47,-10l4 -23c5,3 12,5 20,7 8,3 16,4 22,4 7,0 13,-1 17,-4 3,-3 6,-7 6,-12 0,-4 -2,-8 -6,-10 -4,-3 -11,-6 -21,-10 -3,-2 -6,-2 -7,-3 -12,-5 -21,-10 -26,-16 -5,-6 -8,-13 -8,-23 0,-12 4,-22 13,-28 9,-7 21,-10 36,-10 17,0 32,3 45,10l-8 22c-13,-6 -25,-9 -36,-9 -6,0 -11,1 -15,3 -3,2 -5,5 -5,10 0,4 1,7 5,9 3,3 10,6 20,9 1,0 2,1 3,1 2,1 3,1 4,2 13,4 21,10 27,16 6,6 9,14 9,24 0,13 -5,23 -14,31 -9,7 -21,10 -38,10z"/>
 </g>
</svg>
