<?xml version="1.0" encoding="UTF-8"?>
<!DOCTYPE svg PUBLIC "-//W3C//DTD SVG 1.1//EN" "http://www.w3.org/Graphics/SVG/1.1/DTD/svg11.dtd">
<!-- Creator: CorelDRAW X7 -->
<svg xmlns="http://www.w3.org/2000/svg" xml:space="preserve" width="15mm" height="14mm" version="1.1" style="shape-rendering:geometricPrecision; text-rendering:geometricPrecision; image-rendering:optimizeQuality; fill-rule:evenodd; clip-rule:evenodd"
viewBox="0 0 1500 1400"
 xmlns:xlink="http://www.w3.org/1999/xlink">
 <defs>
  <style type="text/css">
   <![CDATA[
    .fil0 {fill:white;fill-rule:nonzero}
   ]]>
  </style>
 </defs>
 <g id="Layer_x0020_1">
  <metadata id="CorelCorpID_0Corel-Layer"/>
  <path class="fil0" d="M750 127l220 220 0 25 0 116 -35 0 0 -116 -122 0c-24,0 -46,-10 -62,-26 -16,-15 -25,-37 -25,-61l0 -123 -489 0c-14,0 -27,6 -37,15 -9,10 -15,23 -15,37l0 972c0,14 6,27 15,37 10,9 23,15 37,15l646 0c15,0 28,-6 37,-15 10,-10 15,-23 15,-37l0 -64 35 0 0 64c0,24 -10,46 -25,61 -16,16 -38,26 -62,26l-646 0c-24,0 -46,-10 -61,-26 -17,-16 -26,-38 -26,-61l0 -972c0,-23 9,-45 26,-61 15,-16 37,-26 61,-26l513 0zm-474 882l0 -408 133 0c50,0 82,2 98,6 23,6 43,19 58,40 16,20 24,47 24,79 0,25 -4,46 -14,64 -9,17 -20,30 -34,40 -14,10 -28,16 -43,19 -20,4 -48,6 -85,6l-54 0 0 154 -83 0zm83 -339l0 116 45 0c32,0 54,-2 65,-6 11,-5 20,-11 26,-21 6,-9 9,-19 9,-31 0,-15 -4,-28 -13,-37 -9,-10 -20,-16 -33,-19 -10,-1 -30,-2 -59,-2l-40 0zm298 -69l150 0c34,0 60,2 78,7 24,7 45,20 62,38 17,18 30,40 39,66 8,26 13,59 13,97 0,33 -4,62 -13,87 -10,30 -24,54 -43,72 -15,14 -34,25 -58,33 -18,5 -43,8 -73,8l-155 0 0 -408zm83 69l0 270 61 0c23,0 40,-1 50,-4 13,-3 24,-9 33,-17 9,-8 16,-21 21,-39 6,-18 9,-43 9,-75 0,-32 -3,-56 -9,-73 -5,-17 -13,-30 -23,-39 -10,-10 -22,-16 -38,-19 -11,-3 -34,-4 -67,-4l-37 0zm329 339l0 -408 281 0 0 69 -198 0 0 97 171 0 0 69 -171 0 0 173 -83 0zm-309 -822l0 98c0,14 6,27 16,37 9,9 22,15 37,15l98 0 -151 -150z"/>
 </g>
</svg>
