<?xml version="1.0" encoding="UTF-8"?>
<!DOCTYPE svg PUBLIC "-//W3C//DTD SVG 1.1//EN" "http://www.w3.org/Graphics/SVG/1.1/DTD/svg11.dtd">
<!-- Creator: CorelDRAW X7 -->
<svg xmlns="http://www.w3.org/2000/svg" xml:space="preserve" width="15mm" height="12mm" version="1.1" style="shape-rendering:geometricPrecision; text-rendering:geometricPrecision; image-rendering:optimizeQuality; fill-rule:evenodd; clip-rule:evenodd"
viewBox="0 0 1500 1200"
 xmlns:xlink="http://www.w3.org/1999/xlink">
 <defs>
  <style type="text/css">
   <![CDATA[
    .fil0 {fill:#666666}
   ]]>
  </style>
 </defs>
 <g id="Layer_x0020_1">
  <metadata id="CorelCorpID_0Corel-Layer"/>
  <path class="fil0" d="M570 386c-97,0 -114,-106 -213,-106l-139 0c-37,0 -68,31 -68,68l0 651c0,21 9,41 23,56 -10,-15 -13,-34 -7,-55l124 -418c11,-39 52,-72 93,-72l187 0 0 25 -187 0c-30,0 -61,25 -70,54l-124 418c-7,25 5,48 33,48l932 0c30,0 62,-26 70,-55l124 -418c7,-25 -4,-47 -33,-47l-213 0 0 -25 120 0 0 -44c0,-44 -36,-80 -80,-80l-40 0 0 -82 0 -16 -143 -143 -332 0c-31,0 -57,26 -57,57l0 184zm276 5c0,21 -9,40 -23,54 -14,14 -33,22 -55,22l0 0c-21,0 -41,-8 -55,-22 -14,-14 -23,-33 -23,-54l0 -110 0 -1 1 0 155 0 0 0 0 1 0 110zm4 -131c-1,-5 2,-10 7,-14l0 0c0,0 0,0 0,0 2,1 4,-1 4,-2l2 -13 0 0c1,0 1,0 2,1l3 -3 3 -7 0 0c-2,-1 -3,-1 -5,-2l-2 4 0 0c-1,-1 -3,-1 -4,-2l2 -4 0 0c-2,-1 -4,-1 -6,-2l-1 4 0 0c-2,0 -3,-1 -4,-1l1 -4 0 0c-2,-1 -4,-2 -6,-2l-2 6 1 5 0 0c0,0 1,0 2,0l-2 2 0 0c-2,0 -4,-1 -6,-2l-2 6 0 0c-2,-1 -4,-2 -6,-2l1 -6 0 0c-3,-1 -6,-1 -9,-2l-1 5 0 0c-2,0 -4,0 -7,-1l1 -5 0 0c-2,-1 -4,-1 -6,-2l0 -2 0 0c0,0 1,0 2,0l5 -2 1 -8 0 0c-2,0 -4,-1 -6,-1l-1 4 0 0c-1,0 -2,0 -4,0l1 -5 0 0c-2,0 -4,0 -6,-1l0 5 0 0c-2,0 -4,-1 -6,-1l1 -4 0 0c-2,0 -4,-1 -6,-1l0 5 0 0c-2,0 -3,-1 -5,-1l1 -4 0 0c-3,0 -4,0 -7,-1l0 8 4 4 0 0c1,0 2,0 3,0l-1 2 0 0c-3,0 -5,0 -7,0l0 5 0 0c-2,0 -4,0 -7,0l1 -5 0 0c-4,0 -6,0 -9,0l0 5 0 0c-2,0 -4,0 -7,0l0 -5 0 0c-2,0 -4,0 -7,0l0 -2 0 0c0,0 1,0 2,0l4 -4 0 -8 0 0c-2,1 -4,1 -6,1l0 4 0 0c-2,0 -3,1 -5,1l0 -5 0 0c-2,0 -4,1 -6,1l1 4 0 0c-2,0 -3,1 -5,1l-1 -5 0 0c-2,1 -3,1 -5,1l0 5 0 0c-1,0 -3,0 -4,0l-1 -4 0 0c-2,0 -4,1 -6,1l1 8 5 2 0 0c1,0 2,0 3,0l-1 2 0 0c-2,1 -4,1 -6,2l1 5 0 0c-2,1 -4,1 -7,1l-1 -5 0 0c-3,1 -6,1 -9,2l2 6 0 0c-3,0 -5,1 -7,2l-2 -6 0 0c-2,1 -4,2 -6,2l-1 -2 0 0c0,0 1,0 1,0l1 -5 -2 -6 0 0c-2,0 -4,1 -6,2l1 4 0 0c-1,0 -2,1 -4,1l-1 -4 0 0c-2,1 -3,1 -5,2l1 4 0 0c-1,1 -2,1 -4,2l-1 -4 0 0c-2,1 -4,1 -6,2l3 7 3 3 0 0c1,-1 1,-1 2,-1l2 13 0 0c0,0 0,0 0,0 0,2 2,3 4,2l0 0c5,4 8,9 8,14 -1,1 -1,1 -2,1l0 0c-1,1 -1,2 -1,3 1,1 2,1 3,1l0 0c1,0 1,-1 2,-1l0 0c2,-1 4,0 5,2 0,1 -1,3 -2,4l0 0c-1,1 -2,2 -1,3 0,1 1,1 2,1l0 0c50,-20 100,-20 150,0l0 0c1,0 2,0 3,-1 0,-1 0,-2 -1,-3 -2,-1 -3,-3 -2,-4 0,-2 2,-3 4,-2l0 0c1,0 1,1 2,1l0 0c1,0 3,0 3,-1 1,-1 0,-2 -1,-3l0 0c0,0 -1,0 -1,-1zm-158 -26l-4 -6c-1,0 -2,0 -4,1l0 0 5 6c1,0 2,0 3,-1zm55 -19l2 7c-1,0 -2,0 -3,1l0 0 -2 -8c1,0 2,0 3,0zm-18 10c2,0 3,-1 4,-1l0 0 0 -8c-1,0 -2,0 -3,1l0 0 -1 8zm115 9l5 -6c1,0 2,0 3,1l0 0 -5 6c-1,0 -2,0 -3,-1zm-55 -19l-2 7c1,0 2,0 3,1l0 0 3 -8c-1,0 -3,0 -4,0zm18 10c-1,0 -2,-1 -4,-1l0 0 0 -8c1,0 2,0 3,1l0 0 1 8zm-127 6l1 7c-1,1 -2,1 -3,2l0 0 -1 -8c1,-1 2,-1 3,-1zm177 0l-2 7c1,1 2,1 3,2l0 0 2 -8c-1,-1 -2,-1 -3,-1zm-6 31c-55,-23 -111,-23 -165,0l0 0c-1,0 -1,1 -1,1 0,1 1,1 2,1l0 0c54,-23 109,-23 163,0l0 0c0,0 1,0 1,-1 0,0 0,-1 0,-1zm-8 11c-50,-20 -100,-20 -150,0l0 0c-1,0 -1,0 -1,-1 -1,0 0,-1 0,-1l0 0c51,-20 102,-20 152,0l0 0c1,0 1,1 1,1 -1,1 -1,1 -2,1zm-1 -4c-49,-19 -98,-19 -148,0l0 0c2,-2 1,-5 -2,-6 0,0 0,0 0,0l0 0c51,-20 101,-20 152,0l0 0c-2,1 -3,3 -2,5 0,1 0,1 0,1zm-107 -33l8 -2c0,0 0,0 0,0l0 0 -8 0c0,-1 0,-1 1,-1l0 0 6 -1c-1,-1 -1,-1 -1,-1l0 0 -5 0c0,0 0,-1 1,-1l0 0 3 -1c0,0 -1,0 -1,0l0 0 -2 0c0,0 0,-1 0,-1l0 0c1,-1 3,-2 5,-1 0,0 1,0 1,1l0 0c4,5 6,10 7,17l0 0c-6,0 -10,1 -16,2l0 0c0,-1 0,-1 0,-2l0 0 12 -2c0,0 0,0 0,0l0 0 -12 0c0,0 0,-1 0,-1l0 0 12 -2c0,0 -1,0 -1,-1l0 0 -11 1c0,0 0,-1 0,-1l0 0 11 -2c-1,0 -1,0 -1,-1l0 0 -9 1c0,-1 0,-1 0,-1zm16 9c-1,-7 -3,-13 -7,-18l0 0c-2,-2 -5,-2 -7,-1 0,1 -1,1 -1,2l0 0c-3,6 -4,12 -3,19l0 0c-1,0 -1,0 -2,0l0 0c-1,-7 0,-13 3,-20l0 0c2,-3 6,-5 9,-3 1,0 2,1 2,2l0 0c5,5 7,11 8,18l0 0c0,0 -1,1 -2,1zm-63 6c0,1 0,1 0,1l0 0 6 -2c0,0 1,0 1,1l0 0 -6 3c0,0 0,0 0,1l0 0 7 -3c1,0 1,1 1,1l0 0 -7 4c0,0 0,1 0,1l0 0 8 -3c0,0 1,0 1,1l0 0c-4,1 -7,2 -11,4l0 0c0,-6 -3,-11 -7,-14l0 0c2,0 3,0 5,0l0 0 -1 1c0,0 0,0 0,0l0 0 3 0c1,0 1,0 2,0l0 0 -4 2c1,0 1,0 1,1l0 0 4 -2c1,0 1,0 2,1l0 0 -5 2zm-3 -36l2 4c-2,1 -4,2 -6,3l0 0 -2 -4c-1,0 -2,0 -3,1l0 0 2 4c-2,1 -4,1 -6,2l0 0 -2 -4c-1,1 -2,1 -4,2l0 0 3 5 0 1c8,-4 14,-6 22,-9l0 0 0 -1 -2 -5c-1,0 -2,1 -4,1zm66 -9c-2,0 -4,1 -7,1l0 0 0 -5c-1,1 -2,1 -3,1l0 0 0 4c-2,0 -5,1 -7,1l0 0 -1 -4c-1,0 -2,0 -3,0l0 0 1 5c-3,0 -5,0 -7,1l0 0 -1 -5c-1,1 -2,1 -4,1l0 0 1 6 1 0c12,-2 22,-3 33,-4l0 0 1 0 0 -6c-2,0 -3,0 -4,0l0 0 0 4zm2 4c-11,0 -20,1 -30,3l0 0 2 1c9,-2 17,-3 26,-3l0 0 2 -1zm-63 13l1 -1c-8,2 -14,4 -20,8l0 0 1 0c6,-3 12,-5 18,-7zm59 -11c-8,1 -14,2 -21,3l0 0 -2 33c1,0 2,0 4,-1l0 0c-1,-7 0,-14 3,-20l0 0c2,-4 6,-6 10,-4 2,0 3,1 3,2l0 0c5,6 8,12 8,19l0 0c2,0 3,0 5,0l0 0 -10 -32zm-42 41l-18 -28c-6,2 -10,3 -15,5l0 0 2 13c11,-4 22,1 27,11l0 0c1,0 3,-1 4,-1zm-5 2c-5,-10 -16,-15 -26,-11l0 0c0,1 2,2 3,1l0 0c8,-2 17,2 21,10l0 0c1,0 1,0 2,0zm99 -19l-8 -2c0,0 0,0 0,0l0 0 8 0c0,-1 0,-1 0,-1l0 0 -6 -1c0,-1 0,-1 0,-1l0 0 5 0c0,0 0,-1 0,-1l0 0 -4 -1c1,0 1,0 1,0l0 0 2 0c0,0 0,-1 0,-1l0 0c-1,-1 -3,-2 -4,-1 -1,0 -1,0 -2,1l0 0c-4,5 -6,10 -7,17l0 0c6,0 10,1 16,2l0 0c0,-1 0,-1 0,-2l0 0 -12 -2c0,0 0,0 0,0l0 0 12 0c0,0 0,-1 0,-1l0 0 -11 -2c0,0 0,0 0,-1l0 0 11 1c0,0 0,-1 0,-1l0 0 -10 -2c0,0 0,0 0,-1l0 0 10 1c0,-1 0,-1 -1,-1zm-16 9c1,-7 3,-13 8,-18l0 0c1,-2 4,-2 6,-1 0,1 1,1 1,2l0 0c3,6 4,12 3,19l0 0c1,0 1,0 2,0l0 0c1,-7 0,-13 -3,-20l0 0c-1,-3 -5,-5 -9,-3 -1,0 -2,1 -2,2l0 0c-5,5 -7,11 -8,18l0 0c1,0 1,1 2,1zm63 6c0,1 0,1 0,1l0 0 -6 -2c0,0 0,0 -1,1l0 0 6 3c0,0 0,0 0,1l0 0 -7 -3c0,0 0,1 -1,1l0 0 7 4c0,0 0,1 0,1l0 0 -8 -3c0,0 0,0 0,1l0 0c3,1 7,2 11,4l0 0c0,-6 2,-11 7,-14l0 0c-2,0 -4,0 -6,0l0 0 1 1c0,0 0,0 0,0l0 0 -3 0c0,0 -1,0 -1,0l0 0 3 2c0,0 -1,0 -1,1l0 0 -4 -2c-1,0 -1,0 -1,1l0 0 4 2zm3 -36l-2 4c3,1 4,2 7,3l0 0 1 -4c1,0 2,0 3,1l0 0 -2 4c3,1 4,1 7,2l0 0 1 -4c2,1 3,1 4,2l0 0 -2 5 -1 1c-8,-4 -14,-6 -22,-9l0 0 0 -1 2 -5c1,0 2,1 4,1zm-66 -9c3,0 5,1 7,1l0 0 0 -5c2,1 2,1 4,1l0 0 -1 4c3,0 5,1 8,1l0 0 0 -4c1,0 2,0 3,0l0 0 0 5c2,0 4,0 6,1l0 0 1 -5c2,1 3,1 4,1l0 0 -1 6 -1 0c-12,-2 -21,-3 -33,-4l0 0 -1 0 1 -6c1,0 2,0 3,0l0 0 0 4zm-1 4c10,0 19,1 29,3l0 0 -1 1c-10,-2 -18,-3 -27,-3l0 0 -1 -1zm62 13l0 -1c7,2 13,4 20,8l0 0 -1 0c-7,-3 -12,-5 -19,-7zm-58 -11c7,1 13,2 20,3l0 0 2 33c-1,0 -2,0 -4,-1l0 0c1,-7 0,-14 -3,-20l0 0c-2,-4 -6,-6 -10,-4 -1,0 -2,1 -3,2l0 0c-5,6 -7,12 -8,19l0 0c-2,0 -3,0 -4,0l0 0 10 -32zm41 41l19 -28c5,2 9,3 14,5l0 0 -2 13c-10,-4 -22,1 -27,11l0 0c-1,0 -2,-1 -4,-1zm5 2c5,-10 16,-15 26,-11l0 0c0,1 -1,2 -3,1l0 0c-8,-2 -17,2 -21,10l0 0c0,0 -1,0 -2,0zm-129 -21l1 4c-2,1 -4,1 -6,2l0 0 -3 -4c3,-1 5,-1 8,-2l0 0zm1 -1l1 5c4,-1 7,-2 11,-3l0 0 -1 -4c-4,1 -7,1 -11,2l0 0zm20 0c-3,1 -5,1 -7,2l0 0 -1 -5c3,0 5,-1 8,-1l0 0 0 4zm-23 12c4,-1 7,-2 10,-3l0 0 -1 -4c-4,1 -7,2 -12,3l0 0 3 4zm22 -6c-4,1 -7,2 -11,3l0 0 -1 -5c5,-1 8,-2 12,-2l0 0 0 4zm-6 3c-3,0 -6,1 -10,2l0 0 1 5c4,-1 7,-2 10,-3l0 0 -1 -4zm-15 4c1,-1 2,-1 4,-1l0 0 1 4c-1,0 -2,0 -3,1l0 0 -2 -4zm21 -1c-1,0 -2,0 -4,1l0 0 -1 -5c2,0 3,0 5,-1l0 0 0 5zm-17 8c3,-1 5,-2 8,-2l0 0 -1 -3c-3,1 -5,2 -8,3l0 0 1 2zm9 -3l-1 -2c3,-1 6,-1 9,-2l0 0 0 2c-3,1 -6,2 -8,2zm-20 -24c-2,0 -4,1 -5,1l0 0 5 8c10,-3 18,-5 29,-7l0 0 0 -10c-1,1 -3,1 -5,1l0 0 1 6c-3,1 -5,1 -9,2l0 0 -1 -6c-2,1 -4,1 -6,2l0 0 1 6c-3,0 -6,1 -9,2l0 0 -1 -5zm133 7l-1 5c-4,-1 -7,-2 -10,-3l0 0 1 -4c3,1 6,1 10,2l0 0zm-19 12c2,0 3,0 4,1l0 0 1 -5c-2,0 -3,0 -5,-1l0 0 0 5zm0 -12c2,1 4,1 6,2l0 0 1 -5c-2,0 -5,-1 -8,-1l0 0 1 4zm6 9c4,0 7,1 10,2l0 0 -1 5c-4,-1 -7,-2 -10,-3l0 0 1 -4zm14 -8l-1 4c2,1 4,1 6,2l0 0 3 -4c-3,-1 -5,-1 -8,-2l0 0zm2 12c-2,-1 -3,-1 -5,-1l0 0 -1 4c1,0 2,0 3,1l0 0 3 -4zm-5 7c-2,-1 -5,-2 -7,-2l0 0 0 -3c3,1 6,2 8,3l0 0 -1 2zm5 -8c-3,-1 -6,-2 -10,-3l0 0 1 -4c4,1 8,2 12,3l0 0 -3 4zm-13 5l0 -2c-3,-1 -5,-1 -9,-2l0 0 1 2c2,1 5,2 8,2zm-9 -11c4,1 7,2 11,3l0 0 1 -5c-4,-1 -8,-2 -12,-2l0 0 0 4zm29 -13c1,0 3,1 5,1l0 0 -5 8c-11,-3 -19,-5 -30,-7l0 0 0 -10c2,1 3,1 5,1l0 0 -1 6c3,1 6,1 9,2l0 0 1 -6c2,1 4,1 7,2l0 0 -2 6c3,0 6,1 9,2l0 0 2 -5zm-57 -2l2 -9c-1,0 -3,0 -5,0l0 0 0 6c-3,-1 -6,-1 -9,-1l0 0 0 -5c-2,0 -4,0 -6,0l0 0 0 5c-3,0 -6,0 -9,1l0 0 0 -6c-2,0 -3,0 -5,0l0 0 3 9c10,-1 18,-1 29,0zm-1 1l-1 5c-4,-1 -8,-1 -12,-1l0 0 0 -4c4,0 9,0 13,0zm-28 0l1 5c5,-1 8,-1 13,-1l0 0 0 -4c-5,0 -9,0 -14,0zm2 6c1,0 3,0 4,0l0 0 1 4c-2,0 -3,0 -4,0l0 0 -1 -4zm19 0l0 4c-5,0 -9,0 -13,0l0 0 0 -4c4,-1 8,-1 13,0zm6 0c-2,0 -3,0 -5,0l0 0 0 4c1,0 2,0 3,0l0 0 2 -4zm-13 10l0 -5c-4,0 -7,0 -11,0l0 0 2 5c3,0 5,0 9,0zm11 -5l-2 5c-3,0 -5,0 -8,0l0 0 0 -5c3,0 6,0 10,0zm-5 8l0 -2c-4,0 -8,0 -12,0l0 0 0 2c4,0 8,0 12,0zm-15 -2c1,0 1,0 2,0l0 0 0 2c-1,0 -1,0 -1,0l0 0 -1 -2zm18 0c0,0 -1,0 -2,0l0 0 0 2c1,0 1,0 1,0l0 0 1 -2zm-116 135c1,2 0,3 -1,5 -1,1 -1,2 -1,3l-1 0 0 0c0,-2 0,-3 1,-4 1,-1 2,-2 1,-3l1 -1 0 0zm44 92c1,0 1,0 1,0 0,-1 0,-1 0,-1 0,-1 0,-1 -1,-1l0 -1 4 3 0 1c-1,-1 -2,-1 -2,0l-14 7 -1 0 5 -15c0,-1 0,-1 0,-2 0,0 0,0 0,0l0 -1 6 5 0 1c-1,-1 -2,-2 -3,-1 0,0 0,0 0,0l-3 10 8 -5zm3 16c-1,1 0,2 1,3l0 0 -7 -4 0 -1c1,1 2,1 3,0l6 -10c1,-1 0,-2 -1,-2l0 -1 7 4 0 1c-1,-1 -2,-1 -3,0l-6 10zm19 6l-3 5 -12 -6 0 0c0,0 1,0 1,0 1,0 1,-1 2,-1l4 -10c0,-1 0,-1 0,-2 0,0 0,-1 -1,-1l0 0 7 3 0 0c0,0 -1,0 -1,0 -1,0 -1,1 -2,1l-4 10c0,1 0,1 0,2 0,0 1,1 1,1 1,0 2,1 3,1 1,0 1,-1 2,-1 1,0 2,-1 3,-2l0 0zm14 -6l1 15c0,1 1,2 2,2l-1 0 -7 -2 0 0c2,0 3,0 3,-1 0,0 0,0 0,0l-1 -3 -5 -2 -1 2c0,0 0,1 -1,1 0,1 1,1 2,1l0 1 -5 -1 0 -1c1,0 1,0 1,0 1,0 1,0 1,-1l10 -12 1 1zm-3 10l0 -6 -4 5 4 1zm29 -7c4,0 6,2 8,5 0,1 0,2 0,3 0,1 0,3 -1,4 0,1 -1,2 -2,3 -1,1 -3,2 -5,2l-8 -1 0 0c1,0 1,0 2,-1 0,0 0,0 0,-1l1 -11c0,-1 -1,-1 -1,-2 0,0 -1,0 -1,0l0 -1 7 0zm-2 14c0,1 0,1 0,1 0,1 1,1 1,1 2,0 3,-1 3,-1 1,-1 1,-1 2,-2 0,-2 0,-3 0,-5 0,-1 0,-2 0,-3 0,-1 -1,-2 -1,-2 -1,-1 -1,-1 -2,-2 0,0 -1,0 -2,0 0,0 0,0 0,0 -1,0 -1,1 -1,2l0 11zm19 -1c0,1 0,1 1,1 0,0 0,1 1,1 0,-1 0,-1 1,-1 1,0 1,0 2,0 1,-1 1,-1 2,-2 0,-1 1,-2 1,-3l1 0 -1 5 -13 2 0 0c0,0 1,-1 1,-1 0,0 1,-1 0,-1l-1 -11c0,-1 -1,-2 -1,-2 0,0 -1,0 -2,0l0 -1 14 -2 0 5 0 0c0,0 0,0 -1,-1 0,0 0,-1 0,-1 -1,0 -1,-1 -2,-1 0,0 -1,0 -2,0l-2 0c0,0 -1,0 -1,0 0,1 0,1 0,2l1 5c1,0 2,0 2,-1 1,0 1,0 1,-1 0,0 0,-1 1,-2l0 0 1 8 0 0c-1,-1 -1,-2 -1,-2 -1,-1 -1,-1 -2,-1 0,0 -1,0 -2,0l1 5zm37 -10c-1,1 -3,2 -4,3 -2,1 -3,1 -5,1 -1,-1 -3,-1 -4,-2 -1,-1 -1,-2 -2,-3 -1,-2 -1,-3 -1,-4 0,-2 1,-3 1,-4 1,-1 3,-3 4,-3 1,-1 3,-1 5,-1 1,0 2,1 3,2 1,1 2,2 3,3 0,1 1,3 1,4 0,1 -1,3 -1,4zm-3 2c0,-1 1,-2 1,-4 -1,-1 -1,-3 -2,-4 -1,-2 -1,-3 -2,-4 -1,-1 -2,-2 -3,-2 -1,0 -1,0 -2,0 0,1 -1,1 -1,1 -1,1 -1,2 -1,4 0,1 1,3 2,4 0,2 1,3 2,4 1,1 2,2 3,2 1,0 1,0 2,0 0,-1 0,-1 1,-1zm13 -10c1,1 2,1 3,0l0 1 -7 4 0 0c1,-1 2,-2 1,-3l-6 -10c-1,-1 -2,-1 -3,0l0 -1 7 -4 0 0c-1,1 -1,2 -1,3l6 10zm3 -19l13 7c1,1 2,1 2,0l1 0 -6 5 -1 0c2,-1 2,-2 1,-2 0,0 0,-1 0,-1l-2 -1 -5 3 1 3c0,0 0,0 0,0 1,1 2,1 3,0l0 0 -4 3 0 0c0,0 0,0 1,-1 0,0 0,-1 -1,-1l-4 -15 1 0zm7 7l-6 -3 2 6 4 -3zm-8 -13l0 0 1 0c0,0 0,1 0,1 0,0 0,1 0,1 0,0 0,1 0,1 0,0 0,1 -1,1 0,0 -1,0 -1,1 -1,0 -2,0 -2,0 0,0 0,0 0,0 0,1 0,1 0,1 0,0 0,0 0,0 0,0 0,0 0,1l-1 0c0,0 0,-1 0,-1 0,-1 -1,-1 -1,-1 0,-1 1,-1 1,-1 0,-1 0,-1 0,-1l1 0c0,0 0,0 0,0 0,0 0,0 0,0 0,0 0,-1 0,-1 1,0 1,0 1,0 1,0 1,0 2,0 0,0 0,-1 0,-1 0,0 0,0 0,0 0,0 0,0 0,0 0,0 0,-1 0,-1zm-175 -85c1,4 -1,6 -2,8 -1,1 -1,2 -2,2l0 0 -1 0c1,-1 1,-2 2,-3l0 0c1,-1 2,-3 2,-5 0,-1 0,-1 0,-1l0 -1 1 0zm6 6c1,2 0,3 -1,4 0,1 -1,2 -1,4l0 0 -1 0c0,-2 1,-3 2,-4 0,-1 1,-2 0,-4l1 0 0 0zm4 3c0,2 -1,3 -1,4 -1,0 -1,1 -1,2l-1 0 0 0c0,-1 0,-2 1,-3 0,-1 1,-2 1,-3l0 0 1 0zm3 2c1,1 0,2 0,3 -1,1 -1,1 -1,2l-1 0 0 0c0,-1 0,-2 1,-3 0,0 1,-1 0,-2l1 0 0 0zm3 2c1,2 0,2 0,3 0,1 -1,1 -1,2l0 0 -1 0c0,-1 1,-2 1,-2 0,-1 1,-2 0,-2l1 -1 0 0zm-8 -52c1,1 1,1 2,1 0,1 0,1 1,1l-1 1 0 0c0,0 -1,-1 -1,-1 0,0 -1,0 -1,-1l0 0 0 -1zm-1 2c0,1 1,1 1,1 1,1 2,1 3,2l-1 0 0 1c0,-1 -1,-1 -2,-2 -1,0 -1,-1 -2,-1l1 0 0 -1zm-2 2c1,1 1,1 2,1 1,1 3,2 3,3l0 1 -1 0c0,-2 -1,-2 -2,-3 -1,0 -2,-1 -3,-1l1 -1 0 0zm-2 1c0,1 2,2 3,3 1,1 3,1 3,2l0 1 -1 0c0,-1 -1,-2 -3,-2 -1,-1 -2,-2 -3,-3l0 0 1 -1zm-3 2c1,1 2,1 4,2 2,1 3,2 4,3l-1 1c0,-1 -2,-2 -4,-3 -1,-1 -3,-2 -4,-3l1 0zm-17 14c0,0 0,1 0,1 0,1 0,2 0,3 0,0 0,1 0,2 1,2 1,4 1,5l-1 0 0 0c0,-1 0,-3 -1,-5 0,-2 -1,-4 0,-6l1 0 0 0 0 0zm-3 2c-1,2 0,3 0,4 0,1 1,3 0,4l0 0 -1 0c1,-1 0,-3 0,-4 0,-1 -1,-2 0,-4l0 0 0 0 1 0zm-4 2c0,1 0,2 0,3 0,1 1,2 0,3l0 0 -1 0c1,-1 0,-2 0,-3 0,-1 0,-2 0,-4l1 1 0 0 0 0zm-3 0c0,1 0,2 0,3 0,0 0,1 0,2l0 0 0 0c-1,-1 -1,-1 -1,-2 0,-1 0,-2 0,-3l1 0 0 0 0 0zm-3 0c0,1 0,2 0,3 0,0 0,1 1,2l-1 0 0 0c-1,-1 -1,-1 -1,-2 0,-1 0,-2 0,-3l1 0 0 0 0 0zm15 16c0,1 -1,2 -1,3 0,0 0,0 0,1 -1,1 -1,3 0,5 0,1 0,1 0,1l0 0 -1 1c-1,-3 -1,-5 0,-8 0,-1 1,-2 1,-3l0 0 0 0 1 0zm-4 0c0,1 0,2 0,3l0 0c-1,1 -1,3 -1,4 0,0 1,1 1,1l-1 0 0 0c-1,-2 -1,-3 0,-5 0,-1 0,-2 0,-3l1 0 0 0 0 0zm-3 1c0,0 -1,1 -1,1 0,1 0,1 0,2 0,0 0,1 0,1 0,1 0,1 0,2l-1 0 0 0c0,-1 0,-2 0,-3 0,-1 0,-2 1,-4l0 0 0 0 1 1zm-3 -1c-1,1 -1,2 -1,2 0,1 0,1 0,2 0,0 0,0 0,0 0,1 0,1 0,2l-1 0 0 0c0,-1 0,-1 0,-2 0,-2 0,-3 1,-4l0 0 0 0 1 0zm-4 0c0,1 0,2 0,3 0,1 0,1 0,3l-1 0 0 0c0,-1 0,-2 0,-3 0,-1 0,-2 0,-3l1 0 0 0 0 0zm247 3c0,0 0,0 0,0 0,1 0,2 1,3 0,0 0,0 0,0 1,1 2,2 2,4l-1 0 -1 0c0,-1 0,-2 -1,-3 -1,-2 -1,-3 -1,-5l1 0 0 0 0 1zm3 -4c0,0 0,0 0,0 0,3 1,5 2,6l0 0c1,1 2,2 2,3l-1 0 0 0c0,0 -1,-1 -2,-2 -1,-2 -3,-4 -2,-8l1 0 0 1 0 0zm-6 5c0,1 0,1 0,1 0,1 0,2 1,2 0,0 0,1 0,1 0,1 1,2 1,4l-1 0 0 0c0,-2 -1,-3 -1,-4 -1,-1 -1,-2 -1,-4l1 0 0 0 0 0zm-3 3c0,0 0,0 0,1 0,0 0,1 0,1 0,1 0,1 0,1 1,1 1,2 1,3l0 0 -1 0c0,-1 0,-2 0,-2 -1,-1 -2,-2 -1,-4l0 0 0 0 1 0zm-4 2c0,0 0,1 0,1 0,0 0,0 0,1 0,0 0,0 1,0 0,1 1,2 1,3l-1 0 0 0c0,-1 -1,-1 -1,-2 -1,-1 -1,-2 -1,-3l0 0 1 0 0 0zm-3 3c0,0 0,1 0,2 1,0 1,1 1,2l-1 0 0 0c0,-1 0,-1 -1,-2 0,-1 0,-1 0,-3l0 0 1 1 0 0zm7 -52c0,1 0,1 -1,1l0 0c0,0 0,1 -1,1l0 0 -1 -1c1,0 1,0 2,-1l0 0c0,0 0,0 1,-1l0 1 0 0 0 0zm2 2c-1,0 -1,1 -2,1 0,1 -1,1 -2,2l0 -1 -1 0c1,-1 2,-1 3,-2 0,0 1,0 1,-1l0 1 1 0 0 0zm2 2c-1,0 -2,1 -2,1 -1,1 -2,1 -3,3l-1 0 0 -1c1,-1 2,-2 3,-3 1,0 2,0 2,-1l0 0 0 0 1 1zm2 1c0,1 -2,2 -3,3 -1,0 -3,1 -3,2l-1 0 0 -1c1,-1 2,-1 3,-2 2,-1 3,-2 3,-3l1 1 0 0 0 0zm3 1c-1,1 -2,2 -4,3 -2,1 -4,2 -4,3l-1 -1c1,-1 3,-2 5,-3 1,-1 3,-1 3,-2l1 0zm17 14c1,2 0,4 0,6 -1,2 -1,4 -1,5l0 0 -1 0c0,-1 0,-3 1,-5 0,-2 1,-4 0,-6l1 0 0 0zm4 2c0,2 0,3 -1,4 0,1 0,3 0,4l-1 0 0 0c0,-1 0,-3 0,-4 1,-1 1,-2 1,-4l0 0 1 0zm3 1c1,2 0,3 0,4 0,1 0,2 0,3l-1 0 0 0c0,-1 0,-2 0,-3 0,-1 1,-2 0,-3l1 0 0 -1zm3 1c0,1 0,2 0,3 0,1 0,1 0,2l-1 0 0 0c0,-1 0,-2 0,-2 0,-1 0,-2 0,-3l1 0 0 0zm3 0c0,1 0,2 0,3 0,1 0,1 0,2l-1 0 0 0c0,-1 0,-2 0,-2 0,-1 0,-2 0,-3l0 0 1 0zm-14 16c0,1 0,2 0,3 1,3 1,5 0,8l0 -1 -1 0c0,0 0,0 1,-1 0,-2 0,-3 -1,-5l0 0c0,-2 0,-3 -1,-4l1 0 1 0zm3 0c0,1 0,2 1,3 0,2 1,3 0,5l-1 0 0 0c0,-1 0,-1 0,-1 0,-1 0,-2 0,-3 0,0 0,0 0,-1 -1,-1 -1,-2 -1,-3l1 0 0 0zm3 0c1,2 1,3 2,4 0,1 0,2 -1,3l0 0 -1 0c1,-1 1,-2 0,-3 0,-1 0,-2 0,-3l0 -1 0 0zm4 0c0,1 0,2 1,4 0,1 -1,1 -1,2l0 0 -1 0c0,-1 1,-1 0,-2 0,-1 0,-2 0,-4l0 0 1 0zm3 0c0,1 0,2 0,3 1,1 1,2 0,3l0 0 -1 0c1,-2 1,-2 0,-3 0,-1 0,-2 0,-3l0 0 1 0zm-50 16l0 -2c0,-9 8,-7 14,-14 3,-3 7,-9 11,-9 3,1 3,3 6,5 0,-2 0,-8 2,-10 -3,-1 -5,-1 -7,-1 -5,9 -21,1 -16,-9 0,-4 -4,-5 -4,-13 0,-4 2,-6 5,-8 2,-2 -1,-4 -7,-6 -10,-3 -2,-17 5,-18 9,0 7,10 2,13 4,-1 11,-2 12,4 2,9 9,7 9,12 1,7 -6,9 -11,11 0,4 3,6 6,6 9,-13 11,6 23,3 4,-1 6,2 4,14 -2,7 6,16 -6,16 -7,0 -11,6 -16,6l-1 0c0,66 -55,119 -121,119 -66,0 -121,-53 -121,-119l-1 0c-5,0 -9,-6 -16,-6 -12,0 -4,-9 -5,-16 -3,-12 -1,-15 3,-14 12,3 14,-16 24,-3 3,0 5,-2 5,-6 -5,-2 -11,-4 -11,-11 0,-5 8,-3 9,-12 1,-6 8,-5 12,-4 -5,-3 -7,-13 2,-13 7,1 15,15 5,18 -6,2 -8,4 -7,6 3,2 5,4 5,8 0,8 -4,9 -4,13 5,10 -11,18 -16,9 -1,0 -4,0 -7,1 2,2 2,8 2,10 3,-2 3,-4 6,-5 4,0 8,6 11,9 6,7 14,5 14,14l0 2c0,49 41,88 90,88 49,0 90,-39 90,-88zm-182 0c1,-10 -7,-6 -15,-17 -3,-3 -5,-5 -8,-6 3,3 3,8 0,11 -2,3 -3,7 -4,12 0,65 54,117 119,117 65,0 119,-52 119,-117 -1,-5 -2,-9 -4,-12 -2,-3 -3,-8 0,-11 -3,1 -5,3 -7,6 -9,11 -17,7 -16,17 0,50 -42,90 -92,90 -50,0 -92,-40 -92,-90zm-2 -73c3,-2 3,-2 2,-5 -2,-3 -7,-7 -10,-5 -5,4 3,12 8,10zm2 1c1,-1 1,0 0,2 -2,3 -13,3 -11,9 -13,-3 -10,-12 -1,-10 7,1 8,0 12,-1zm-20 7c-2,5 -4,5 -6,7 -3,2 -3,7 3,9 5,3 10,4 14,8 0,-4 3,-6 3,-9 1,-13 -10,-8 -14,-15zm3 21c-1,3 -3,6 -7,6 1,3 1,4 2,6 1,6 11,4 13,-2 1,-4 -2,-7 -8,-10zm-7 12c-2,-1 -5,-1 -7,0 -1,-1 -1,-3 -1,-6 1,-4 2,-5 5,-1 2,2 3,4 3,7zm-9 -9c-1,5 -1,8 1,12 1,2 2,7 1,11 -1,6 -4,11 0,16 -5,-2 -7,-6 -15,-6 -9,0 -2,-7 -4,-14 -1,-5 -4,-15 4,-13 6,2 10,-4 13,-6zm5 39c0,-5 2,-8 4,-12 2,-3 2,-6 -1,-8 -1,1 -2,3 -5,4 1,4 -4,13 2,16zm214 -71c-3,-2 -3,-2 -2,-5 2,-3 7,-7 10,-5 6,4 -3,12 -8,10zm-2 1c-1,-1 -1,0 0,2 3,3 13,3 11,9 13,-3 10,-12 1,-10 -6,1 -8,0 -12,-1zm21 7c2,5 3,5 6,7 2,2 2,7 -3,9 -5,3 -11,4 -14,8 -1,-4 -4,-6 -4,-9 -1,-13 10,-8 15,-15zm-3 21c0,3 2,6 6,6 -1,3 -1,4 -2,6 -1,6 -11,4 -13,-2 -1,-4 2,-7 9,-10zm6 12c3,-1 6,-1 7,0 1,-1 2,-3 1,-6 -1,-4 -1,-5 -5,-1 -2,2 -2,4 -3,7zm9 -9c1,5 1,8 -1,12 -1,2 -1,7 -1,11 1,6 4,11 0,16 5,-2 8,-6 16,-6 8,0 2,-7 3,-14 1,-5 4,-15 -3,-13 -6,2 -11,-4 -14,-6zm-4 39c-1,-5 -2,-8 -5,-12 -2,-3 -2,-6 1,-8 1,1 3,3 5,4 -1,4 5,13 -1,16zm-149 -72c1,0 1,0 2,1 0,1 0,2 0,2 0,0 -1,0 -2,-1 0,-1 0,-1 0,-2zm2 0c1,0 2,0 2,0 1,1 1,2 1,2 -1,0 -1,0 -2,-1 0,0 -1,-1 -1,-1zm3 -1c0,0 1,0 2,1 0,0 0,1 0,1 0,0 -1,0 -1,0 -1,-1 -1,-2 -1,-2zm2 -1c1,0 1,0 2,1 1,0 1,1 1,1 0,0 -1,0 -2,0 -1,-1 -1,-1 -1,-2zm2 -1c1,0 1,0 2,0 1,1 1,1 1,2 0,0 -1,0 -2,-1 0,0 -1,0 -1,-1zm2 -1c1,0 1,0 2,0 1,0 2,0 1,1 0,0 0,0 -1,0 -1,0 -2,-1 -2,-1zm2 -2c1,0 1,0 2,0 1,0 2,0 2,0 0,1 -1,1 -2,1 -1,0 -1,0 -2,-1zm2 -1c0,-1 0,-1 1,-1 1,0 2,0 2,0 0,0 -1,1 -2,1 0,0 -1,0 -1,0zm-4 0c0,0 0,0 0,-1 1,-1 0,-2 0,-2 0,0 -1,1 -1,2 0,1 0,1 1,1zm-2 2c0,-1 0,-1 0,-2 0,-1 0,-2 0,-2 -1,0 -1,1 -1,2 0,1 1,1 1,2zm-2 1c0,0 0,-1 0,-2 0,0 0,-1 0,-1 -1,0 -1,1 -1,1 0,1 0,2 1,2zm-3 1c1,0 1,-1 1,-2 0,0 0,-1 0,-1 -1,0 -1,0 -1,1 0,1 0,2 0,2zm-2 1c0,0 1,-1 1,-2 0,0 0,-1 0,-1 -1,0 -1,0 -1,1 -1,1 -1,1 0,2zm-4 -7c0,0 0,-1 0,-2 -1,0 -1,-1 -2,-1 0,0 0,1 1,2 0,1 0,1 1,1zm-1 3c0,-1 0,-2 -1,-2 0,-1 -1,-2 -1,-2 0,1 0,1 0,2 1,1 1,1 2,2zm6 -11c1,0 1,-1 1,-2 0,-1 -1,-1 -1,-1 0,0 0,1 0,1 0,1 0,2 0,2zm-1 2c0,-1 0,-1 0,-2 0,-1 -1,-1 -1,-1 0,0 0,0 0,1 0,1 0,2 1,2zm-2 2c0,0 1,-1 0,-2 0,-1 0,-1 0,-1 -1,0 -1,0 -1,1 0,1 1,2 1,2zm-1 2c0,-1 0,-1 0,-2 -1,-1 -1,-1 -1,-1 -1,0 -1,1 0,1 0,1 0,2 1,2zm6 -7c1,0 1,-1 1,-2 0,0 0,-1 0,-1 0,0 -1,0 -1,1 0,1 0,2 0,2zm-1 3c1,0 1,0 2,1 1,0 2,-1 2,-1 0,0 -1,-1 -2,-1 -1,0 -1,0 -2,1zm3 -2c0,1 1,1 2,1 1,0 1,0 1,0 0,0 0,-1 -1,-1 -1,0 -1,0 -2,0zm3 -1c0,0 1,1 1,1 1,0 2,0 2,0 0,0 0,-1 -1,-1 -1,0 -2,0 -2,0zm-7 5c0,0 0,0 1,0 1,0 2,0 2,0 0,-1 -1,-1 -2,-1 -1,0 -1,0 -1,1zm-2 2c0,0 1,0 2,0 1,0 1,0 1,-1 0,0 -1,0 -1,0 -1,0 -2,1 -2,1zm-1 2c0,0 1,1 2,0 0,0 1,0 1,0 0,-1 -1,-1 -2,-1 0,0 -1,1 -1,1zm-1 2c0,1 1,1 2,1 0,-1 1,-1 1,-1 0,-1 -1,-1 -2,-1 0,1 -1,1 -1,1zm-1 2c0,1 1,1 2,1 0,0 1,-1 1,-1 0,0 -1,0 -2,0 0,0 -1,0 -1,0zm9 -14c1,0 1,-1 1,-1 1,-1 1,-2 1,-2 -1,0 -1,0 -2,1 0,1 0,2 0,2zm2 -1c1,0 2,0 2,-1 0,0 0,-1 0,-1 0,-1 -1,0 -1,1 -1,0 -1,1 -1,1zm-15 12c0,1 0,1 0,2 0,1 1,2 1,1 0,0 0,0 0,-1 0,-1 -1,-1 -1,-2zm-16 -18c0,-1 -1,-1 -1,-2 -1,0 -2,0 -2,0 0,0 0,1 1,1 1,1 1,1 2,1zm2 -1c0,-1 0,-1 0,-2 0,-1 -1,-2 -1,-2 0,0 0,1 0,2 0,1 0,1 1,2zm1 1c0,0 1,-1 1,-1 0,-1 0,-2 0,-2 -1,0 -1,1 -1,1 -1,1 0,2 0,2zm1 3c0,-1 1,-1 1,-2 0,-1 0,-1 0,-2 0,0 -1,1 -1,2 0,0 0,1 0,2zm0 2c1,0 1,0 2,-1 0,-1 0,-2 0,-2 0,0 -1,1 -1,1 -1,1 -1,2 -1,2zm1 3c0,0 1,-1 1,-1 1,-1 1,-2 1,-2 -1,0 -1,0 -2,1 0,1 0,1 0,2zm0 3c0,0 1,-1 1,-1 1,-1 1,-2 1,-2 0,0 -1,0 -2,1 0,1 0,1 0,2zm0 3c1,0 1,-1 2,-1 0,-1 0,-2 0,-2 0,0 -1,0 -1,1 -1,0 -1,1 -1,2zm0 3c1,-1 1,-1 2,-1 0,-1 1,-2 0,-2 0,0 -1,0 -1,1 -1,0 -1,1 -1,2zm1 2c0,0 1,0 1,-1 1,0 1,-1 1,-1 0,-1 -1,0 -2,1 0,0 0,1 0,1zm-5 -17c0,-1 0,-1 -1,-1 -1,-1 -2,-1 -2,0 0,0 1,1 1,1 1,0 2,0 2,0zm1 2c0,0 -1,-1 -2,-1 0,0 -1,0 -1,0 0,0 0,1 1,1 1,0 2,0 2,0zm0 3c0,-1 0,-1 -1,-2 -1,0 -2,0 -2,1 0,0 1,0 2,1 0,0 1,0 1,0zm1 2c-1,0 -1,-1 -2,-1 -1,0 -1,0 -2,0 0,0 1,1 2,1 0,0 1,0 2,0zm0 3c0,-1 -1,-1 -1,-2 -1,0 -2,0 -2,0 0,0 0,1 1,1 1,1 1,1 2,1zm0 2c0,-1 0,-1 -1,-1 -1,-1 -2,-1 -2,0 0,0 1,0 1,1 1,0 2,0 2,0zm0 2c0,0 0,-1 -1,-1 -1,0 -2,0 -2,0 0,0 1,1 1,1 1,0 2,0 2,0zm1 3c0,-1 -1,-1 -2,-2 0,0 -1,0 -1,0 0,0 0,1 1,1 1,1 1,1 2,1zm10 -15c0,0 0,-1 -1,-2 0,0 -1,-1 -1,0 0,0 0,1 0,1 1,1 1,1 2,1zm-1 3c0,-1 0,-1 0,-2 -1,-1 -2,-1 -2,-1 0,0 0,1 1,2 0,0 1,1 1,1zm0 2c0,0 0,-1 -1,-2 -1,0 -2,0 -2,0 0,0 1,1 1,1 1,1 1,1 2,1zm2 -7c0,0 0,-1 0,-1 -1,-1 -2,-2 -2,-2 0,1 0,2 1,2 0,1 1,1 1,1zm1 -1c0,-1 1,-1 0,-2 0,-1 -1,-1 -1,-1 0,0 0,1 0,1 0,1 1,2 1,2zm2 -2c0,-1 0,-1 0,-2 0,-1 -1,-2 -1,-2 0,0 -1,1 0,2 0,1 0,1 1,2zm-9 19c0,0 0,1 0,1 1,1 2,1 2,1 0,0 0,-1 -1,-2 0,0 -1,0 -1,0zm0 -2c0,0 1,1 1,1 1,1 2,1 2,1 0,0 0,-1 -1,-2 -1,0 -1,0 -2,0zm1 -2c0,0 0,1 1,1 1,1 2,1 2,1 0,0 -1,-1 -1,-2 -1,0 -1,0 -2,0zm0 -2c0,0 0,1 1,1 1,0 2,0 2,0 0,0 -1,-1 -1,-1 -1,0 -2,0 -2,0zm0 -2c0,0 0,1 1,1 1,0 2,0 2,0 0,0 -1,-1 -2,-1 0,0 -1,0 -1,0zm9 -10c0,0 0,-1 1,-1 1,-1 2,-1 2,0 0,0 0,0 -1,1 -1,0 -2,0 -2,0zm-1 2c0,0 0,-1 1,-1 1,0 2,0 2,0 0,0 -1,1 -1,1 -1,0 -2,0 -2,0zm-2 2c1,0 1,-1 2,-1 1,0 1,0 1,0 1,1 0,1 -1,1 -1,1 -1,0 -2,0zm-1 2c1,0 1,-1 2,-1 1,0 1,0 2,0 0,1 -1,1 -2,1 -1,1 -1,1 -2,0zm0 2c0,0 1,0 1,-1 1,0 2,0 2,1 0,0 0,0 -1,1 -1,0 -2,0 -2,-1zm0 3c0,-1 0,-1 1,-2 1,0 2,0 2,1 0,0 -1,0 -2,1 0,0 -1,0 -1,0zm0 2c0,-1 0,-1 1,-1 1,-1 2,-1 2,0 0,0 -1,0 -2,1 0,0 -1,0 -1,0zm-1 2c1,-1 1,-1 2,-1 1,-1 1,0 2,0 0,0 -1,1 -2,1 -1,0 -1,0 -2,0zm0 2c0,0 0,-1 1,-1 1,0 2,0 2,0 0,0 -1,1 -1,1 -1,0 -2,0 -2,0zm-31 -1c0,-1 -1,-1 -1,-2 0,-1 1,-2 1,-2 0,0 1,1 1,2 0,1 -1,1 -1,2zm7 7c-1,0 -1,0 -2,1 0,0 -1,1 -1,1 0,0 1,0 2,0 1,-1 1,-1 1,-2zm-2 -1c-1,0 -1,0 -2,1 -1,0 -1,1 -1,1 0,0 1,0 2,0 0,-1 1,-1 1,-2zm-2 -1c-1,0 -2,0 -2,0 -1,1 -2,1 -1,1 0,1 1,1 1,0 1,0 1,0 2,-1zm-2 -1c0,-1 -1,-1 -2,-1 -1,0 -1,1 -1,1 0,0 0,1 1,1 1,0 2,-1 2,-1zm-2 -2c0,0 0,0 -1,-1 -1,0 -2,1 -2,1 0,0 1,1 2,1 0,0 1,0 1,-1zm-1 -2c0,0 -1,-1 -1,-1 -1,0 -2,0 -2,0 0,1 1,1 1,1 1,1 2,0 2,0zm4 2c-1,-1 -1,-1 -1,-2 0,-1 1,-2 1,-2 0,1 0,1 0,2 0,1 0,2 0,2zm2 1c-1,0 -1,-1 -1,-1 0,-1 0,-2 1,-2 0,0 0,1 0,2 0,0 0,1 0,1zm2 2c-1,-1 -1,-1 -1,-2 0,-1 1,-2 1,-2 0,0 0,1 0,2 0,1 0,1 0,2zm2 0c-1,0 -1,0 -1,-1 0,-1 1,-2 1,-2 0,0 1,1 1,2 -1,1 -1,1 -1,1zm2 1c0,0 -1,-1 -1,-1 1,-1 1,-2 1,-2 0,0 1,1 1,2 0,1 -1,1 -1,1zm2 1c0,0 0,-1 0,-2 0,0 0,-1 0,-1 1,0 1,1 1,1 0,1 0,2 -1,2zm2 1c0,0 0,-1 0,-2 0,-1 0,-1 1,-1 0,0 0,1 0,1 0,1 0,2 -1,2zm-6 -14c0,1 -1,1 -1,1 -1,0 -2,0 -2,-1 0,0 1,0 1,0 1,0 2,0 2,0zm-2 -1c-1,0 -1,0 -2,0 -1,0 -2,0 -2,0 0,0 1,-1 2,-1 1,0 1,0 2,1zm-3 -1c0,0 -1,0 -2,0 0,0 -1,0 -1,0 0,-1 1,-1 1,-1 1,0 2,0 2,1zm7 4c0,1 -1,1 -2,1 0,0 -1,0 -1,-1 0,0 1,0 1,0 1,0 2,0 2,0zm2 3c-1,0 -1,0 -2,0 -1,0 -2,-1 -2,-1 0,0 1,0 2,0 1,0 1,0 2,1zm1 2c0,0 -1,0 -2,0 -1,0 -1,-1 -1,-1 0,0 0,0 1,0 1,0 2,0 2,1zm1 2c0,0 -1,0 -2,0 0,0 -1,0 -1,-1 0,0 1,0 2,0 0,0 1,1 1,1zm-2 -6c0,-1 0,-1 0,-2 0,-1 1,-2 1,-2 0,0 0,1 0,2 0,1 0,1 -1,2zm2 2c-1,-1 -1,-1 -1,-2 1,-1 1,-1 1,-1 1,0 1,1 1,1 -1,1 -1,2 -1,2zm1 2c0,0 -1,-1 0,-2 0,-1 0,-1 1,-1 0,0 0,1 0,1 0,1 -1,2 -1,2zm1 2c0,0 0,-1 0,-2 0,-1 1,-1 1,-1 0,0 0,1 0,2 0,0 0,1 -1,1zm-5 -8c0,-1 -1,-1 -1,-2 1,-1 1,-2 1,-2 0,0 1,1 1,2 0,1 -1,1 -1,2zm-2 -2c0,-1 0,-1 0,-2 0,-1 0,-2 1,-2 0,0 0,1 0,2 0,1 0,1 -1,2zm-1 -1c-1,-1 -1,-1 -1,-2 0,-1 0,-2 0,-2 1,0 1,1 1,2 0,1 0,1 0,2zm-2 -1c0,-1 -1,-1 -1,-2 -1,0 -1,-1 0,-1 0,-1 0,0 1,1 0,0 0,1 0,2zm-2 -1c-1,-1 -1,-1 -2,-1 0,-1 0,-2 0,-2 0,0 1,0 1,1 1,0 1,1 1,2zm33 20c0,0 1,1 1,2 0,0 0,1 0,1 0,0 -1,0 -1,-1 0,-1 0,-1 0,-2zm-26 -1c0,0 -1,0 -1,1 -1,1 -1,1 -1,2 0,0 1,-1 2,-1 0,-1 0,-2 0,-2zm-2 -1c0,0 -1,0 -2,1 0,0 -1,1 0,1 0,1 1,0 1,0 1,-1 1,-1 1,-2zm26 2c0,1 0,1 1,2 0,1 -1,2 -1,2 0,0 -1,-1 -1,-2 0,-1 0,-1 1,-2zm-21 0c-1,0 -1,0 -2,1 0,0 0,1 0,1 0,1 1,0 1,0 1,-1 1,-2 1,-2zm2 1c-1,0 -1,0 -2,1 0,1 -1,2 0,2 0,0 1,0 1,-1 1,-1 1,-1 1,-2zm20 -1c2,0 4,-1 6,-1 6,-2 10,-5 11,-7l0 -1c-2,3 -6,6 -11,7 -3,1 -5,-1 -7,0 -1,0 0,-1 1,-2 1,-2 2,-4 2,-5 2,-4 4,-8 12,-10l0 0c-9,2 -10,5 -12,9 -1,2 -2,4 -3,5 -1,2 -7,7 -4,-4 0,-2 0,-3 0,-5 0,-4 0,-8 5,-13l-1 0c-5,5 -5,9 -5,13 0,2 0,5 -2,8 -2,3 -4,3 -5,-1 -2,-3 -2,-6 -2,-9 0,-4 0,-8 -3,-12l-1 1c3,3 3,7 3,11 0,2 1,4 1,6 0,2 1,11 -4,5 -2,-3 -3,-5 -4,-7 -2,-3 -4,-6 -10,-8l0 1c6,2 7,4 9,8 0,0 2,3 4,5 1,2 1,6 -2,4 -2,0 -3,-1 -3,-1 -5,-1 -10,-3 -12,-8l-1 0c3,6 8,7 13,9 1,1 2,1 3,2 2,0 2,2 4,2 1,0 0,1 0,2 0,2 1,3 0,6 0,1 0,1 0,2 0,1 0,2 0,2 -1,1 2,1 -1,4 -2,1 -4,2 -4,4 0,0 0,1 -1,1 -2,0 -2,2 -2,2 0,1 -1,1 -2,1 -4,0 3,2 4,0 0,-2 2,-3 3,-2 1,1 1,1 0,2 -1,0 -1,1 -1,1 1,2 -1,4 1,4 1,0 1,-3 2,-3 2,-1 1,-2 1,-3 0,0 0,-1 2,-1 0,1 1,0 1,1 -1,0 -1,0 0,1 1,1 1,2 1,2 0,1 -1,1 -1,2 0,2 1,0 2,-1 2,-1 -1,-3 -1,-4 1,-1 0,-1 2,-1 0,0 1,0 1,0 0,0 0,0 1,0 0,1 0,1 0,2 1,1 2,1 2,2 0,1 -1,2 0,2 0,0 2,-3 1,-3 0,-1 -2,-1 -2,-3 0,-1 3,0 4,1 0,1 2,1 3,1 0,0 0,2 0,2 1,0 1,-2 1,-3 0,0 -1,-1 -3,-1 -1,0 -1,-2 0,-2 1,0 1,1 3,1 2,0 2,0 3,1 0,0 -1,0 -1,0 1,2 4,3 3,2 0,-1 -2,-1 -1,-2 1,0 1,-1 0,-1 -2,-1 -2,-2 -4,-2 -1,-1 0,-3 -2,-3 -2,-1 -1,-3 -2,-4 -2,-1 -1,-2 -1,-4 -1,-4 1,-3 1,-5 0,-3 1,-5 5,-5zm16 -8c0,-1 0,-1 0,-2 0,-1 0,-2 0,-2 0,0 -1,1 -1,2 0,1 0,1 1,2zm31 0c-1,-1 -1,-1 -1,-2 0,-1 0,-2 0,-2 1,0 1,1 1,2 0,1 0,1 0,2zm12 8c0,0 -1,0 -1,1 -1,1 -1,2 -1,2 1,0 1,0 2,-1 0,-1 0,-1 0,-2zm-2 0c-1,0 -1,0 -2,0 0,1 -1,2 0,2 0,0 1,0 1,-1 1,0 1,-1 1,-1zm-3 -1c0,0 -1,0 -1,1 -1,0 -1,1 -1,1 0,0 1,0 2,0 0,-1 0,-2 0,-2zm-2 -1c0,0 -1,0 -2,1 0,0 -1,1 -1,1 1,0 2,0 2,0 1,-1 1,-1 1,-2zm-2 -1c0,0 -1,0 -2,0 0,1 -1,1 -1,2 0,0 1,0 2,-1 1,0 1,0 1,-1zm-2 -1c0,0 -1,0 -2,0 -1,0 -1,0 -1,1 0,0 1,0 1,0 1,0 2,-1 2,-1zm-2 -2c0,0 -1,0 -2,0 0,0 -1,0 -1,0 0,1 1,1 1,1 1,0 2,0 2,-1zm2 -1c0,0 0,0 0,-1 0,-1 0,-2 0,-2 1,0 1,1 1,2 0,1 0,1 -1,1zm2 2c0,-1 0,-1 0,-2 0,-1 0,-2 1,-2 0,0 0,1 0,2 0,1 0,1 -1,2zm3 1c-1,0 -1,-1 -1,-2 0,0 0,-1 1,-1 0,0 0,1 0,1 0,1 0,2 0,2zm2 1c0,0 -1,-1 -1,-2 0,0 0,-1 1,-1 0,0 0,0 0,1 1,1 0,2 0,2zm3 1c-1,0 -1,-1 -1,-2 -1,0 -1,-1 0,-1 0,0 0,0 1,1 0,1 0,1 0,2zm4 -7c-1,0 -1,-1 0,-2 0,0 1,-1 1,-1 0,0 0,1 0,2 -1,1 -1,1 -1,1zm1 3c0,-1 -1,-2 0,-2 0,-1 1,-2 1,-2 0,1 0,1 0,2 0,1 -1,1 -1,2zm-7 -11c-1,0 -1,-1 -1,-2 0,-1 1,-1 1,-1 0,0 1,1 1,1 0,1 -1,2 -1,2zm2 2c-1,-1 -1,-1 -1,-2 0,-1 1,-1 1,-1 0,0 1,0 0,1 0,1 0,2 0,2zm1 2c0,0 0,-1 0,-2 0,-1 0,-1 1,-1 0,0 0,0 0,1 0,1 0,2 -1,2zm1 2c0,-1 0,-1 1,-2 0,-1 1,-1 1,-1 0,0 0,1 0,1 -1,1 -1,2 -2,2zm-6 -7c0,0 -1,-1 -1,-2 0,0 0,-1 0,-1 0,0 1,0 1,1 0,1 0,2 0,2zm1 3c-1,0 -1,0 -2,1 -1,0 -2,-1 -2,-1 0,0 1,-1 2,-1 1,0 1,0 2,1zm-3 -2c0,1 -1,1 -1,1 -1,0 -2,0 -2,0 0,0 0,-1 1,-1 1,0 2,0 2,0zm-3 -1c0,0 0,1 -1,1 -1,0 -2,0 -2,0 0,0 1,-1 1,-1 1,0 2,0 2,0zm8 5c-1,0 -1,0 -2,0 -1,0 -2,0 -2,0 0,-1 1,-1 2,-1 1,0 1,0 2,1zm1 2c0,0 -1,0 -2,0 0,0 -1,0 -1,-1 0,0 1,0 2,0 0,0 1,1 1,1zm1 2c0,0 -1,1 -1,0 -1,0 -2,0 -2,0 0,-1 1,-1 2,-1 1,0 1,1 1,1zm1 2c0,1 -1,1 -1,1 -1,-1 -2,-1 -2,-1 0,-1 1,-1 2,-1 1,1 1,1 1,1zm1 2c0,1 0,1 -1,1 -1,0 -2,-1 -2,-1 0,0 1,0 2,0 1,0 1,0 1,0zm-9 -14c0,0 -1,-1 -1,-1 -1,-1 0,-2 0,-2 0,0 1,0 1,1 0,1 0,2 0,2zm-2 -1c-1,0 -1,0 -2,-1 0,0 0,-1 0,-1 0,-1 1,0 1,1 1,0 1,1 1,1zm15 12c1,1 1,1 0,2 0,1 -1,2 -1,1 0,0 0,0 0,-1 0,-1 1,-1 1,-2zm16 -18c1,-1 1,-1 2,-2 0,0 1,0 1,0 1,0 0,1 -1,1 -1,1 -1,1 -2,1zm-1 -1c-1,-1 -1,-1 -1,-2 0,-1 1,-2 1,-2 0,0 1,1 1,2 -1,1 -1,1 -1,2zm-2 1c0,0 0,-1 -1,-1 0,-1 0,-2 1,-2 0,0 0,1 1,1 0,1 0,2 -1,2zm-1 3c0,-1 0,-1 -1,-2 0,-1 0,-1 0,-2 0,0 1,1 1,2 1,0 1,1 0,2zm0 2c-1,0 -1,0 -1,-1 -1,-1 -1,-2 -1,-2 0,0 1,1 2,1 0,1 0,2 0,2zm0 3c-1,0 -1,-1 -2,-1 0,-1 -1,-2 0,-2 0,0 1,0 1,1 1,1 1,1 1,2zm-1 3c0,0 -1,-1 -1,-1 -1,-1 -1,-2 -1,-2 1,0 1,0 2,1 0,1 0,1 0,2zm0 3c0,0 -1,-1 -1,-1 -1,-1 -1,-2 -1,-2 0,0 1,0 2,1 0,0 0,1 0,2zm0 3c-1,-1 -1,-1 -2,-1 0,-1 0,-2 0,-2 0,0 1,0 1,1 1,0 1,1 1,2zm-1 2c0,0 -1,0 -1,-1 -1,0 -1,-1 -1,-1 1,-1 1,0 2,1 0,0 0,1 0,1zm5 -17c0,-1 1,-1 1,-1 1,-1 2,-1 2,0 0,0 0,1 -1,1 -1,0 -1,0 -2,0zm-1 2c1,0 1,-1 2,-1 1,0 2,0 2,0 0,0 -1,1 -2,1 -1,0 -1,0 -2,0zm0 3c0,-1 1,-1 1,-2 1,0 2,0 2,1 0,0 0,0 -1,1 -1,0 -2,0 -2,0zm0 2c0,0 0,-1 1,-1 1,0 2,0 2,0 0,0 -1,1 -1,1 -1,0 -2,0 -2,0zm-1 3c1,-1 1,-1 2,-2 0,0 1,0 1,0 1,0 0,1 -1,1 -1,1 -1,1 -2,1zm0 2c0,-1 1,-1 1,-1 1,-1 2,-1 2,0 0,0 0,0 -1,1 -1,0 -1,0 -2,0zm0 2c0,0 1,-1 1,-1 1,0 2,0 2,0 0,0 0,1 -1,1 -1,0 -2,0 -2,0zm-1 3c1,-1 1,-1 2,-2 1,0 1,0 2,0 0,0 -1,1 -2,1 0,1 -1,1 -2,1zm-10 -15c0,0 0,-1 1,-2 0,0 1,-1 1,0 1,0 0,1 0,1 -1,1 -1,1 -2,1zm1 3c0,-1 0,-1 1,-2 0,-1 1,-1 1,-1 0,0 0,1 0,2 -1,0 -2,1 -2,1zm0 2c0,0 1,-1 1,-2 1,0 2,0 2,0 0,0 0,1 -1,1 -1,1 -1,1 -2,1zm-2 -7c0,0 0,-1 1,-1 0,-1 1,-2 1,-2 0,1 0,2 0,2 -1,1 -1,1 -2,1zm-1 -1c0,-1 0,-1 0,-2 0,-1 1,-1 1,-1 0,0 0,1 0,1 0,1 -1,2 -1,2zm-1 -2c-1,-1 -1,-1 -1,-2 1,-1 1,-2 1,-2 1,0 1,1 1,2 -1,1 -1,1 -1,2zm9 19c0,0 -1,1 -1,1 -1,1 -2,1 -2,1 0,0 0,-1 1,-2 1,0 1,0 2,0zm-1 -2c0,0 0,1 -1,1 -1,1 -2,1 -2,1 0,0 1,-1 1,-2 1,0 1,0 2,0zm-1 -2c0,0 0,1 -1,1 -1,1 -1,1 -2,1 0,0 1,-1 1,-2 1,0 2,0 2,0zm0 -2c0,0 0,1 -1,1 -1,0 -2,0 -2,0 0,0 1,-1 2,-1 0,0 1,0 1,0zm1 -2c-1,0 -1,1 -2,1 -1,0 -2,0 -2,0 0,0 1,-1 2,-1 1,0 1,0 2,0zm-10 -10c0,0 0,-1 -1,-1 -1,-1 -2,-1 -2,0 0,0 1,0 1,1 1,0 2,0 2,0zm2 2c-1,0 -1,-1 -2,-1 -1,0 -2,0 -2,0 0,0 1,1 2,1 0,0 1,0 2,0zm1 2c0,0 -1,-1 -2,-1 0,0 -1,0 -1,0 0,1 0,1 1,1 1,1 2,0 2,0zm1 2c0,0 -1,-1 -1,-1 -1,0 -2,0 -2,0 0,1 0,1 1,1 1,1 2,1 2,0zm0 2c0,0 0,0 -1,-1 -1,0 -2,0 -2,1 0,0 1,0 2,1 0,0 1,0 1,-1zm1 3c-1,-1 -1,-1 -2,-2 -1,0 -1,0 -2,1 0,0 1,0 2,1 1,0 1,0 2,0zm0 2c-1,-1 -1,-1 -2,-1 0,-1 -1,-1 -1,0 -1,0 0,0 1,1 1,0 1,0 2,0zm0 2c0,-1 -1,-1 -2,-1 0,-1 -1,0 -1,0 0,0 0,1 1,1 1,0 1,0 2,0zm0 2c0,0 0,-1 -1,-1 -1,0 -2,0 -2,0 0,0 1,1 2,1 0,0 1,0 1,0zm31 -1c1,-1 1,-1 1,-2 0,-1 -1,-2 -1,-2 0,0 0,1 0,2 0,1 0,1 0,2zm-7 7c1,0 1,0 2,1 1,0 1,1 1,1 0,0 -1,0 -2,0 0,-1 -1,-1 -1,-2zm3 -1c0,0 1,0 1,1 1,0 2,1 1,1 0,0 -1,0 -1,0 -1,-1 -1,-1 -1,-2zm2 -1c0,0 1,0 2,0 0,1 1,1 1,1 0,1 -1,1 -2,0 -1,0 -1,0 -1,-1zm1 -1c1,-1 1,-1 2,-1 1,0 2,1 2,1 0,0 -1,1 -2,1 -1,0 -1,-1 -2,-1zm2 -2c0,0 1,0 2,-1 0,0 1,1 1,1 0,0 -1,1 -1,1 -1,0 -2,0 -2,-1zm1 -2c0,0 1,-1 2,-1 0,0 1,0 1,0 0,1 0,1 -1,1 -1,1 -1,0 -2,0zm-3 2c0,-1 0,-1 0,-2 0,-1 0,-2 -1,-2 0,1 0,1 0,2 0,1 0,2 1,2zm-2 1c0,0 0,-1 0,-1 0,-1 0,-2 0,-2 -1,0 -1,1 -1,2 0,0 0,1 1,1zm-2 2c0,-1 0,-1 0,-2 0,-1 0,-2 -1,-2 0,0 0,1 0,2 0,1 0,1 1,2zm-3 0c1,0 1,0 1,-1 0,-1 -1,-2 -1,-2 0,0 0,1 0,2 0,1 0,1 0,1zm-2 1c1,0 1,-1 1,-1 0,-1 -1,-2 -1,-2 0,0 -1,1 0,2 0,1 0,1 0,1zm-2 1c0,0 1,-1 1,-2 0,0 -1,-1 -1,-1 0,0 -1,1 -1,1 0,1 1,2 1,2zm-2 1c0,0 0,-1 0,-2 0,-1 0,-1 0,-1 -1,0 -1,1 -1,1 0,1 1,2 1,2zm6 -14c0,1 1,1 2,1 1,0 1,0 1,-1 0,0 0,0 -1,0 -1,0 -2,0 -2,0zm3 -1c0,0 1,0 1,0 1,0 2,0 2,0 0,0 -1,-1 -2,-1 0,0 -1,0 -1,1zm2 -1c0,0 1,0 2,0 1,0 1,0 1,0 0,-1 0,-1 -1,-1 -1,0 -2,0 -2,1zm-7 4c0,1 1,1 2,1 1,0 1,0 1,-1 0,0 0,0 -1,0 -1,0 -2,0 -2,0zm-1 3c0,0 1,0 1,0 1,0 2,-1 2,-1 0,0 -1,0 -2,0 -1,0 -1,0 -1,1zm-2 2c1,0 1,0 2,0 1,0 2,-1 2,-1 0,0 -1,0 -2,0 -1,0 -1,0 -2,1zm-1 2c0,0 1,0 2,0 1,0 1,0 1,-1 0,0 -1,0 -1,0 -1,0 -2,1 -2,1zm2 -6c0,-1 0,-1 0,-2 0,-1 -1,-2 -1,-2 0,0 0,1 0,2 0,1 1,1 1,2zm-1 2c0,-1 0,-1 0,-2 0,-1 -1,-1 -1,-1 0,0 0,1 0,1 0,1 0,2 1,2zm-2 2c1,0 1,-1 1,-2 -1,-1 -1,-1 -1,-1 -1,0 -1,1 -1,1 1,1 1,2 1,2zm-1 2c0,0 1,-1 0,-2 0,-1 0,-1 -1,-1 0,0 0,1 0,2 0,0 1,1 1,1zm5 -8c1,-1 1,-1 1,-2 0,-1 -1,-2 -1,-2 0,0 -1,1 0,2 0,1 0,1 0,2zm2 -2c0,-1 0,-1 0,-2 0,-1 0,-2 0,-2 -1,0 -1,1 -1,2 0,1 1,1 1,2zm1 -1c1,-1 1,-1 1,-2 0,-1 0,-2 0,-2 0,0 -1,1 -1,2 0,1 0,1 0,2zm2 -1c1,-1 1,-1 2,-2 0,0 0,-1 0,-1 0,-1 -1,0 -2,1 0,0 0,1 0,2zm2 -1c1,-1 1,-1 2,-1 0,-1 1,-2 0,-2 0,0 -1,0 -1,1 -1,0 -1,1 -1,2zm-33 20c0,0 0,1 -1,2 0,0 0,1 0,1 0,0 1,0 1,-1 1,-1 1,-1 0,-2zm26 -1c0,0 1,0 1,1 1,1 1,1 1,2 0,0 -1,-1 -2,-1 0,-1 0,-2 0,-2zm2 -1c1,0 1,0 2,1 0,0 1,1 1,1 0,1 -1,0 -2,0 -1,-1 -1,-1 -1,-2zm-25 2c-1,1 -1,1 -1,2 0,1 0,2 0,2 0,0 1,-1 1,-2 0,-1 0,-1 0,-2zm20 0c1,0 1,0 2,1 1,0 1,1 1,1 -1,1 -1,0 -2,0 -1,-1 -1,-2 -1,-2zm-2 1c1,0 2,0 2,1 1,1 1,2 1,2 -1,0 -1,0 -2,-1 0,-1 -1,-1 -1,-2zm-19 -1c-2,0 -4,-1 -7,-1 -5,-2 -10,-5 -11,-7l1 -1c1,3 5,6 11,7 2,1 4,-1 6,0 1,0 0,-1 -1,-2 -1,-2 -1,-4 -2,-5 -2,-4 -4,-8 -12,-10l1 0c8,2 10,5 12,9 0,2 1,4 2,5 2,2 8,7 5,-4 -1,-2 -1,-3 -1,-5 0,-4 0,-8 -5,-13l1 0c5,5 5,9 5,13 0,2 0,5 2,8 2,3 4,3 6,-1 1,-3 1,-6 1,-9 0,-4 1,-8 3,-12l1 1c-3,3 -3,7 -3,11 0,2 0,4 -1,6 0,2 -1,11 4,5 2,-3 3,-5 4,-7 2,-3 4,-6 10,-8l1 1c-7,2 -8,4 -10,8 0,0 -2,3 -3,5 -2,2 -2,6 1,4 2,0 3,-1 3,-1 5,-1 10,-3 12,-8l1 0c-2,6 -7,7 -12,9 -2,1 -3,1 -4,2 -2,0 -2,2 -4,2 -1,0 0,1 0,2 0,2 -1,3 0,6 0,1 0,1 0,2 0,1 0,2 1,2 0,1 -2,1 1,4 1,1 3,2 3,4 0,0 0,1 1,1 2,0 2,2 2,2 0,1 2,1 2,1 4,0 -3,2 -4,0 0,-2 -2,-3 -3,-2 -1,1 -1,1 0,2 2,0 1,1 1,1 -1,2 1,4 0,4 -2,0 -2,-3 -3,-3 -2,-1 -1,-2 -1,-3 0,0 0,-1 -1,-1 -1,1 -2,0 -1,1 0,0 0,0 -1,1 0,1 -1,2 -1,2 1,1 2,1 1,2 0,2 -1,0 -2,-1 -2,-1 1,-3 1,-4 -1,-1 0,-1 -2,-1 0,0 0,0 -1,0 0,0 0,0 0,0 0,1 0,1 -1,2 0,1 -2,1 -2,2 1,1 1,2 1,2 -1,0 -2,-3 -2,-3 0,-1 3,-1 2,-3 0,-1 -3,0 -3,1 -1,1 -3,1 -3,1 -1,0 0,2 -1,2 -1,0 -1,-2 0,-3 0,0 0,-1 2,-1 1,0 1,-2 0,-2 -1,0 -1,1 -3,1 -1,0 -2,0 -3,1 0,0 2,0 1,0 0,2 -4,3 -3,2 0,-1 2,-1 1,-2 -1,0 -1,-1 0,-1 2,-1 2,-2 4,-2 1,-1 1,-3 2,-3 2,-1 1,-3 2,-4 2,-1 1,-2 2,-4 0,-4 -2,-3 -2,-5 0,-3 -1,-5 -4,-5zm-58 105c0,0 0,-1 0,-1 0,-1 0,-2 0,-2 0,0 1,1 1,2 0,0 0,1 -1,1zm13 9c-1,0 -1,0 -2,1 0,1 0,1 0,2 0,0 1,-1 2,-2 0,0 0,-1 0,-1zm-2 -1c-1,0 -2,0 -2,1 -1,1 -1,2 -1,2 1,0 1,0 2,-1 0,-1 1,-1 1,-2zm-3 0c0,0 -1,0 -2,0 0,1 0,2 0,2 0,0 1,0 1,-1 1,0 1,-1 1,-1zm-2 -1c-1,0 -1,0 -2,0 -1,1 -1,2 -1,2 0,0 1,0 2,-1 1,0 1,-1 1,-1zm-2 -1c-1,0 -1,0 -2,0 -1,0 -1,1 -1,1 0,0 1,0 2,0 0,0 1,-1 1,-1zm-2 -1c-1,-1 -1,-1 -2,-1 -1,1 -2,1 -1,1 0,1 0,1 1,1 1,-1 2,-1 2,-1zm-2 -2c-1,0 -1,0 -2,0 -1,0 -2,0 -2,0 0,0 1,1 2,1 1,0 1,-1 2,-1zm-2 -2c0,0 0,-1 -1,-1 -1,0 -2,0 -2,1 0,0 1,0 2,1 0,0 1,0 1,-1zm4 1c0,0 0,-1 0,-2 -1,0 0,-1 0,-1 0,0 1,1 1,1 0,1 0,2 -1,2zm2 1c0,0 0,0 0,-1 0,-1 0,-2 0,-2 1,0 1,1 1,2 0,1 -1,1 -1,1zm2 2c0,-1 0,-1 0,-2 0,-1 0,-2 0,-2 1,0 1,1 1,2 0,1 0,1 -1,2zm3 1c-1,-1 -1,-1 -1,-2 0,-1 0,-2 0,-2 1,0 1,1 1,2 0,1 0,1 0,2zm2 1c0,-1 -1,-1 -1,-2 0,-1 0,-2 0,-2 1,0 1,1 1,2 1,1 1,1 0,2zm4 -7c0,-1 0,-1 0,-2 1,-1 1,-1 2,-1 0,0 0,1 0,1 -1,1 -1,2 -2,2zm1 2c0,0 0,-1 1,-2 0,0 1,-1 1,-1 0,0 0,1 0,2 -1,1 -1,1 -2,1zm-6 -10c-1,-1 -1,-1 -1,-2 0,-1 1,-2 1,-2 0,0 0,1 0,2 0,1 0,1 0,2zm1 2c0,-1 0,-1 0,-2 0,-1 1,-2 1,-2 0,0 0,1 0,2 0,1 0,1 -1,2zm2 2c0,-1 -1,-1 0,-2 0,-1 0,-2 0,-2 1,0 1,1 1,2 0,1 -1,1 -1,2zm1 1c0,0 0,-1 0,-1 1,-1 1,-2 1,-2 1,0 1,1 0,2 0,1 0,1 -1,1zm-6 -6c-1,-1 -1,-1 -1,-2 0,-1 0,-2 0,-2 0,0 1,1 1,2 0,1 0,1 0,2zm1 2c-1,1 -1,1 -2,1 -1,0 -2,0 -2,0 0,0 1,-1 2,-1 1,0 1,0 2,0zm-3 -1c0,0 -1,1 -2,1 0,0 -1,0 -1,0 0,-1 0,-1 1,-1 1,-1 1,0 2,0zm-3 -1c0,0 -1,1 -1,1 -1,0 -2,0 -2,-1 0,0 0,0 1,-1 1,0 2,0 2,1zm7 4c0,1 0,1 -1,1 -1,0 -2,0 -2,-1 0,0 1,0 2,0 1,0 1,0 1,0zm2 3c0,0 -1,0 -2,0 -1,0 -1,-1 -1,-1 0,0 1,0 1,0 1,0 2,0 2,1zm1 2c0,0 -1,0 -2,0 0,0 -1,-1 -1,-1 0,0 1,0 2,0 0,0 1,0 1,1zm1 2c0,0 -1,0 -2,0 0,0 -1,0 -1,-1 0,0 1,0 2,0 0,0 1,1 1,1zm1 2c0,0 -1,0 -1,0 -1,0 -2,0 -2,0 0,0 1,-1 2,-1 0,0 1,1 1,1zm-9 -14c-1,0 -1,-1 -1,-2 -1,0 -1,-1 -1,-1 1,0 1,0 2,1 0,1 0,1 0,2zm-2 -1c-1,0 -2,0 -2,-1 0,-1 0,-2 0,-2 0,0 1,1 1,1 1,1 1,2 1,2zm15 12c0,0 0,1 0,2 0,1 -1,1 -1,1 0,0 0,-1 0,-2 0,0 1,-1 1,-1zm16 -19c0,0 1,-1 1,-1 1,0 2,0 2,0 0,0 0,1 -1,1 -1,0 -1,0 -2,0zm-2 -1c0,0 0,-1 0,-2 0,0 1,-1 1,-1 0,0 0,1 0,2 0,0 0,1 -1,1zm-1 2c0,0 -1,-1 -1,-2 0,-1 0,-1 0,-1 1,-1 1,0 1,1 1,1 0,1 0,2zm-1 2c0,0 -1,0 -1,-1 0,-1 0,-2 0,-2 0,0 1,1 1,1 0,1 0,2 0,2zm0 3c-1,0 -1,-1 -2,-1 0,-1 0,-2 0,-2 0,0 1,0 1,1 1,1 1,1 1,2zm-1 2c0,0 -1,0 -1,-1 -1,0 -1,-1 -1,-1 1,0 1,0 2,1 0,0 0,1 0,1zm0 3c0,0 -1,0 -1,-1 -1,0 -1,-1 -1,-1 0,-1 1,0 2,1 0,0 0,1 0,1zm0 3c-1,0 -1,0 -2,-1 0,0 0,-1 0,-1 0,-1 1,0 1,0 1,1 1,2 1,2zm0 3c-1,0 -1,0 -2,-1 0,-1 -1,-1 0,-2 0,0 1,1 1,1 1,1 1,2 1,2zm-1 3c0,0 -1,0 -1,-1 -1,-1 -1,-2 -1,-2 0,0 1,1 2,1 0,1 0,1 0,2zm5 -17c0,-1 0,-1 1,-2 1,0 2,0 2,0 0,0 -1,1 -1,1 -1,1 -2,1 -2,1zm-1 2c0,-1 1,-1 2,-1 0,-1 1,0 1,0 0,0 0,1 -1,1 -1,0 -1,0 -2,0zm0 2c0,0 0,-1 1,-1 1,0 2,0 2,0 0,0 -1,1 -2,1 0,1 -1,0 -1,0zm-1 3c1,-1 1,-1 2,-1 1,-1 1,-1 2,-1 0,1 -1,1 -2,2 0,0 -1,0 -2,0zm0 2c0,0 1,-1 1,-1 1,0 2,0 2,0 0,0 0,1 -1,1 -1,0 -1,0 -2,0zm0 3c0,-1 0,-1 1,-2 1,0 2,0 2,0 0,0 0,1 -1,1 -1,1 -2,1 -2,1zm0 2c0,-1 0,-1 1,-1 1,-1 2,-1 2,0 0,0 -1,0 -1,1 -1,0 -2,0 -2,0zm-1 2c0,0 1,-1 2,-1 0,0 1,0 1,0 0,0 0,1 -1,1 -1,0 -1,0 -2,0zm-10 -14c0,-1 0,-1 1,-2 0,-1 1,-1 1,-1 0,0 0,1 0,2 -1,0 -1,1 -2,1zm1 2c0,0 0,-1 0,-1 1,-1 2,-1 2,-1 0,0 0,1 -1,2 0,0 -1,0 -1,0zm0 3c0,-1 0,-1 1,-2 1,0 2,-1 2,0 0,0 -1,1 -1,1 -1,1 -1,1 -2,1zm-2 -7c0,0 0,-1 0,-2 1,-1 2,-1 2,-1 0,0 0,1 -1,2 0,1 -1,1 -1,1zm-1 -2c0,0 -1,-1 0,-1 0,-1 1,-2 1,-2 0,0 0,1 0,2 0,1 -1,1 -1,1zm-2 -2c0,0 0,-1 0,-1 0,-1 1,-2 1,-2 0,0 1,1 0,2 0,1 0,1 -1,1zm9 19c0,1 0,1 0,2 -1,1 -2,1 -2,1 0,-1 0,-1 1,-2 0,-1 1,-1 1,-1zm0 -2c0,1 -1,1 -1,2 -1,0 -2,1 -2,1 0,-1 0,-1 1,-2 1,-1 1,-1 2,-1zm-1 -1c0,0 0,1 -1,1 -1,0 -2,1 -2,0 0,0 1,-1 1,-1 1,-1 1,-1 2,0zm0 -3c0,1 0,1 -1,2 -1,0 -2,0 -2,0 0,0 1,-1 1,-1 1,-1 2,-1 2,-1zm0 -1c0,0 0,0 -1,1 -1,0 -2,0 -2,-1 0,0 1,0 2,-1 0,0 1,0 1,1zm-9 -10c0,-1 0,-1 -1,-2 -1,0 -2,0 -2,0 0,0 0,1 1,1 1,1 2,1 2,1zm1 2c0,-1 0,-1 -1,-1 -1,-1 -2,0 -2,0 0,0 1,1 1,1 1,0 2,0 2,0zm2 2c-1,-1 -1,-1 -2,-1 -1,0 -1,0 -1,0 -1,0 0,1 1,1 1,0 1,0 2,0zm1 2c-1,0 -1,-1 -2,-1 -1,0 -1,0 -1,0 -1,0 0,1 1,1 1,0 1,0 2,0zm0 2c0,0 -1,-1 -1,-1 -1,0 -2,0 -2,0 0,0 1,1 1,1 1,0 2,0 2,0zm0 2c0,0 0,-1 -1,-1 -1,0 -2,0 -2,0 0,0 1,1 2,1 0,1 1,1 1,0zm0 2c0,0 0,0 -1,-1 -1,0 -2,0 -2,0 0,0 1,1 2,1 0,1 1,1 1,0zm1 3c-1,-1 -1,-1 -2,-2 -1,0 -1,0 -2,0 0,1 1,1 2,2 1,0 1,0 2,0zm0 2c0,-1 0,-1 -1,-1 -1,-1 -2,-1 -2,0 0,0 1,1 1,1 1,0 2,0 2,0zm31 -2c0,0 1,-1 1,-1 0,-1 -1,-2 -1,-2 0,0 -1,1 -1,2 0,0 1,1 1,1zm-7 8c1,0 1,0 2,0 0,1 1,2 1,2 0,0 -1,0 -2,-1 -1,0 -1,-1 -1,-1zm2 -1c1,0 1,0 2,0 1,1 1,1 1,2 0,0 -1,0 -2,-1 0,0 -1,-1 -1,-1zm2 -1c1,0 2,0 2,0 1,0 2,1 1,1 0,0 -1,0 -1,0 -1,0 -1,-1 -2,-1zm2 -2c0,0 1,0 2,0 1,0 1,1 1,1 0,0 0,0 -1,0 -1,0 -2,0 -2,-1zm2 -1c0,-1 0,-1 1,-1 1,0 2,0 2,1 0,0 -1,0 -2,0 0,0 -1,0 -1,0zm1 -2c0,-1 1,-1 1,-1 1,0 2,0 2,0 0,0 -1,1 -1,1 -1,0 -2,0 -2,0zm-4 1c1,0 1,0 1,-1 0,-1 -1,-2 -1,-2 0,0 0,1 0,2 0,1 0,1 0,1zm-2 2c1,0 1,-1 1,-2 0,-1 0,-1 -1,-1 0,0 0,0 0,1 0,1 0,2 0,2zm-2 1c1,0 1,-1 1,-2 0,0 -1,-1 -1,-1 0,0 0,1 0,2 0,0 0,1 0,1zm-2 1c1,0 1,-1 1,-2 0,0 -1,-1 -1,-1 0,0 -1,1 -1,1 1,1 1,2 1,2zm-2 1c0,0 1,-1 1,-2 -1,-1 -1,-1 -1,-1 0,0 -1,1 -1,1 0,1 1,2 1,2zm-2 1c0,-1 0,-1 0,-2 0,-1 0,-2 0,-2 -1,0 -1,1 -1,2 0,1 1,1 1,2zm-2 1c0,-1 0,-1 0,-2 0,-1 0,-2 -1,-2 0,0 0,1 0,2 0,1 0,1 1,2zm6 -14c0,0 1,1 1,1 1,0 2,-1 2,-1 0,0 -1,-1 -1,-1 -1,0 -2,1 -2,1zm2 -2c1,1 1,1 2,1 1,0 2,0 2,-1 0,0 -1,0 -2,0 -1,0 -1,0 -2,0zm3 -1c0,0 1,1 2,1 0,0 1,-1 1,-1 0,0 -1,0 -1,0 -1,0 -2,0 -2,0zm-7 5c0,0 1,1 2,1 0,0 1,-1 1,-1 0,0 -1,-1 -1,-1 -1,0 -2,1 -2,1zm-2 2c1,0 1,1 2,1 1,-1 2,-1 2,-1 0,-1 -1,-1 -2,-1 -1,0 -1,1 -2,1zm-1 2c1,1 1,1 2,1 1,0 1,-1 1,-1 0,0 0,-1 -1,-1 -1,1 -2,1 -2,1zm-1 3c0,0 1,0 2,0 0,0 1,-1 1,-1 0,0 -1,0 -2,0 0,0 -1,0 -1,1zm2 -7c0,0 0,-1 0,-2 0,0 -1,-1 -1,-1 0,0 0,1 0,2 0,0 0,1 1,1zm-2 3c1,-1 1,-1 1,-2 -1,-1 -1,-2 -1,-2 -1,0 -1,1 -1,2 1,1 1,1 1,2zm-1 2c0,-1 1,-1 0,-2 0,-1 0,-2 -1,-2 0,0 0,1 0,2 0,1 1,1 1,2zm-1 2c0,-1 0,-1 0,-2 0,-1 -1,-2 -1,-2 0,0 0,1 0,2 0,1 0,1 1,2zm5 -9c0,0 1,-1 1,-2 -1,0 -1,-1 -1,-1 0,0 -1,1 -1,2 0,0 1,1 1,1zm2 -2c0,0 0,0 0,-1 0,-1 0,-2 -1,-2 0,0 0,1 0,2 0,1 0,1 1,1zm1 -1c1,0 1,-1 1,-1 0,-1 0,-2 0,-2 -1,0 -1,1 -1,1 0,1 0,2 0,2zm2 -1c0,0 1,0 1,-1 1,-1 1,-2 0,-2 0,0 0,1 -1,1 0,1 0,2 0,2zm2 -1c1,0 1,0 2,-1 0,0 0,-1 0,-1 0,-1 -1,0 -1,0 -1,1 -1,2 -1,2zm-33 21c0,0 -1,0 -1,1 0,1 0,2 0,2 0,0 1,-1 1,-1 0,-1 0,-2 0,-2zm26 -1c0,0 1,0 1,1 1,0 1,1 1,1 0,0 -1,0 -2,-1 0,0 0,-1 0,-1zm2 -1c0,0 1,0 2,0 0,1 1,2 0,2 0,0 -1,0 -1,-1 -1,0 -1,-1 -1,-1zm-26 2c0,0 0,1 -1,2 0,0 1,1 1,1 0,0 1,0 1,-1 0,-1 0,-2 -1,-2zm21 -1c1,1 1,1 2,1 0,1 1,2 0,2 0,0 -1,0 -1,-1 -1,0 -1,-1 -1,-2zm-2 2c1,0 1,0 2,1 0,0 1,1 0,1 0,1 -1,0 -1,0 -1,-1 -1,-2 -1,-2zm-19 -2c-3,0 -5,0 -7,-1 -6,-1 -10,-4 -11,-6l0 -1c2,2 6,5 11,7 3,0 5,-1 7,-1 1,0 0,-1 -1,-2 -1,-1 -2,-3 -2,-5 -2,-3 -4,-7 -12,-9l0 -1c9,2 10,6 12,10 1,2 2,3 3,5 1,2 8,7 4,-4 0,-2 0,-4 0,-6 0,-3 0,-7 -5,-12l1 -1c5,6 5,10 5,13 0,3 0,6 2,9 2,3 4,3 5,-1 2,-3 2,-6 2,-9 0,-5 0,-9 3,-12l1 0c-3,4 -3,7 -3,12 0,2 -1,4 -1,6 0,2 -1,10 4,4 2,-2 3,-4 4,-6 2,-3 4,-6 10,-8l0 0c-6,3 -7,5 -9,9 0,0 -2,3 -4,5 -1,2 -1,5 2,4 2,-1 3,-1 3,-1 5,-2 10,-4 12,-8l1 0c-3,5 -8,7 -13,9 -1,0 -2,1 -3,1 -2,1 -2,2 -4,2 -1,0 0,2 0,3 0,1 -1,3 0,6 0,1 0,1 0,2 0,1 0,1 0,2 1,1 -2,1 2,3 1,1 3,3 3,4 0,1 0,1 1,1 2,1 2,3 2,3 0,0 1,1 2,1 4,0 -3,2 -4,-1 0,-1 -2,-2 -3,-1 -1,0 -1,1 0,1 1,1 1,2 1,2 -1,2 1,3 -1,4 -1,0 -1,-3 -2,-3 -2,-1 -1,-3 -1,-3 0,-1 0,-1 -2,-1 0,0 -1,0 -1,0 1,1 1,1 0,2 -1,1 -1,1 -1,2 1,0 1,1 1,2 0,1 -1,-1 -2,-1 -2,-1 1,-3 1,-4 -1,-1 0,-1 -2,-1 0,0 -1,0 -1,0 0,0 0,-1 -1,0 0,1 0,1 0,2 0,0 -2,0 -2,1 0,1 1,2 0,3 0,0 -2,-3 -1,-4 0,0 2,0 2,-3 0,0 -3,1 -4,1 0,1 -2,1 -3,1 0,1 0,3 0,3 -1,0 -1,-2 -1,-3 0,-1 1,-1 3,-1 1,0 1,-2 0,-3 -1,1 -1,1 -3,1 -2,0 -2,1 -3,1 0,0 1,1 1,1 -1,1 -4,2 -3,1 0,0 2,-1 1,-1 -1,-1 -1,-1 0,-2 2,0 2,-1 4,-2 1,0 0,-2 2,-3 2,-1 1,-2 2,-3 2,-2 1,-3 1,-4 1,-4 -1,-3 -1,-6 0,-3 -1,-4 -4,-5zm86 -47l0 -7c-1,0 -2,-1 -3,-1 -2,-1 -5,-2 -8,-2 -2,0 -5,1 -7,2 -1,1 -2,1 -4,1 -1,0 -2,0 -3,-1 -2,-1 -5,-2 -8,-2 -2,0 -5,1 -7,2 -1,1 -2,1 -4,1 -1,0 -2,0 -3,-1 -3,-1 -5,-2 -8,-2 -2,0 -5,1 -7,2 -1,1 -3,1 -4,1 -1,0 -2,0 -3,-1 -3,-1 -5,-2 -8,-2 -2,0 -5,1 -7,2 -1,1 -3,1 -4,1 -1,0 -2,0 -4,-1 -2,-1 -4,-2 -7,-2 -3,0 -5,1 -7,2 -1,1 -3,1 -4,1 -1,0 -3,0 -4,-1 -2,-1 -5,-2 -7,-2 -3,0 -5,1 -7,2 -2,1 -3,1 -4,1 -1,0 -3,0 -4,-1 -2,-1 -5,-2 -7,-2 -3,0 -5,1 -8,2 0,0 -1,1 -2,1l0 7c0,0 1,-1 2,-1 2,-2 5,-2 8,-2 3,0 5,0 8,2 1,0 2,1 3,1 1,0 2,-1 3,-1 2,-2 5,-2 8,-2 3,0 5,0 8,2 1,0 2,1 3,1 1,0 2,-1 3,-1 3,-2 5,-2 8,-2 3,0 5,0 8,2 1,0 2,1 3,1 1,0 2,-1 3,-1 3,-2 5,-2 8,-2 3,0 6,0 8,2 1,0 2,1 3,1 1,0 2,-1 3,-1 3,-2 6,-2 8,-2 3,0 6,0 8,2 1,0 2,1 3,1 1,0 3,-1 4,-1 2,-2 5,-2 7,-2 3,0 6,0 8,2 1,0 2,1 3,1 2,0 3,-1 4,-1 2,-2 5,-2 7,-2 3,0 6,0 8,2 1,0 2,1 3,1zm0 -9l0 -6c-1,-1 -2,-1 -3,-1 -2,-2 -5,-2 -8,-2 -2,0 -5,0 -7,2 -1,0 -2,1 -4,1 -1,0 -2,-1 -3,-1 -2,-2 -5,-2 -8,-2 -2,0 -5,0 -7,2 -1,0 -2,1 -4,1 -1,0 -2,-1 -3,-1 -3,-2 -5,-2 -8,-2 -1,0 -2,0 -2,0 -4,3 -8,5 -13,6 -1,0 -3,1 -5,1 2,0 4,1 6,2 1,0 2,0 3,0 1,0 2,0 3,0 3,-2 6,-2 8,-2 3,0 6,0 8,2 1,0 2,0 3,0 1,0 3,0 4,0 2,-2 5,-2 7,-2 3,0 6,0 8,2 1,0 2,0 3,0 2,0 3,0 4,0 2,-2 5,-2 7,-2 3,0 6,0 8,2 1,0 2,0 3,0zm-96 -9c-1,0 -2,0 -3,0 -3,0 -5,0 -7,2 -1,0 -3,1 -4,1 -1,0 -3,-1 -4,-1 -2,-2 -5,-2 -7,-2 -3,0 -5,0 -7,2 -2,0 -3,1 -4,1 -1,0 -3,-1 -4,-1 -2,-2 -5,-2 -7,-2 -3,0 -5,0 -8,2 0,0 -1,0 -2,1l0 6c0,0 1,0 2,0 2,-2 5,-2 8,-2 3,0 5,0 8,2 1,0 2,0 3,0 1,0 2,0 3,0 2,-2 5,-2 8,-2 3,0 5,0 8,2 1,0 2,0 3,0 1,0 2,0 3,0 3,-2 5,-2 8,-2 3,0 5,0 8,2 1,0 2,0 3,0 1,0 2,0 3,0 2,-1 4,-2 6,-2 -2,0 -3,-1 -5,-1 -4,-1 -9,-3 -12,-6zm96 19c-1,0 -2,0 -3,-1 -2,-1 -5,-2 -8,-2 -2,0 -5,1 -7,2 -1,1 -2,1 -4,1 -1,0 -2,0 -3,-1 -2,-1 -5,-2 -8,-2 -2,0 -5,1 -7,2 -1,1 -2,1 -4,1 -1,0 -2,0 -3,-1 -3,-1 -5,-2 -8,-2 -2,0 -5,1 -7,2 -1,1 -3,1 -4,1 -1,0 -2,0 -4,-1 -2,-1 -4,-2 -7,-2 -2,0 -5,1 -7,2 -1,1 -3,1 -4,1 -1,0 -2,0 -4,-1 -2,-1 -4,-2 -7,-2 -3,0 -5,1 -7,2 -1,1 -3,1 -4,1 -1,0 -3,0 -4,-1 -2,-1 -5,-2 -7,-2 -3,0 -5,1 -7,2 -2,1 -3,1 -4,1 -1,0 -3,0 -4,-1 -2,-1 -5,-2 -7,-2 -3,0 -5,1 -8,2 0,1 -1,1 -2,1l0 7c0,0 1,-1 2,-1 2,-1 5,-2 8,-2 3,0 5,1 8,2 1,1 2,1 3,1 1,0 2,0 3,-1 2,-1 5,-2 8,-2 3,0 5,1 8,2 1,1 2,1 3,1 1,0 2,0 3,-1 3,-1 5,-2 8,-2 3,0 5,1 8,2 1,1 2,1 3,1 1,0 2,0 3,-1 3,-1 5,-2 8,-2 3,0 6,1 8,2 1,1 2,1 3,1 1,0 2,0 3,-1 3,-1 6,-2 8,-2 3,0 6,1 8,2 1,1 2,1 3,1 1,0 3,0 4,-1 2,-1 5,-2 7,-2 3,0 6,1 8,2 1,1 2,1 3,1 2,0 3,0 4,-1 2,-1 5,-2 7,-2 3,0 6,1 8,2 1,0 2,1 3,1l0 -7zm-95 -39c0,2 0,5 1,7 0,0 0,0 1,0 1,1 2,1 3,2 0,-1 1,-1 1,-2 1,-1 1,-2 2,-3l0 0 1 0c1,1 1,2 2,2 0,1 1,1 1,1l0 0 0 0 0 0 0 0 0 0 0 0 0 0 0 0 0 0 0 0 0 0 0 0 0 0 1 0 0 0 0 -1 0 0 0 0 0 0 0 0 0 0 0 0 0 0 0 0 0 0 0 0 0 0 0 0 0 0 0 0 0 0 0 -1 0 0c0,0 0,0 0,0l0 0 0 0 0 0 0 0c-1,-2 -3,-4 -5,-5 -2,-2 -4,-3 -7,-6 0,2 -1,4 -1,6zm14 -4c-1,2 -1,4 -2,6 1,0 1,1 1,1 1,0 1,1 1,1 0,-1 1,-1 1,-2 1,0 2,-1 3,-2l0 0 0 0c1,1 2,2 3,2 1,1 1,1 1,2 1,0 1,-1 1,-1 0,0 1,-1 1,-1 0,-2 -1,-4 -2,-6 -1,-2 -2,-4 -4,-6 -1,2 -3,4 -4,6zm12 27c-2,1 -4,2 -6,2 1,0 1,-1 2,-1 1,-2 2,-4 2,-7 1,-2 0,-5 -1,-7l0 0 -1 0c1,0 1,0 1,-1 1,-1 3,-2 5,-4 2,3 2,5 3,7 0,2 0,4 -1,6 -1,2 -2,3 -4,5zm-1 2c-1,0 -1,0 -2,0 1,0 2,-1 4,-1 1,-2 3,-3 4,-5 1,-2 1,-5 1,-7 0,-1 0,-1 -1,-2 2,-1 3,-1 4,-2 2,-1 5,-2 8,-5 0,1 0,3 0,4 0,5 -2,9 -6,12 -3,3 -7,5 -12,6zm11 -25c0,2 0,5 0,7 -1,0 -1,0 -1,0 -2,1 -3,1 -4,2 0,-1 -1,-1 -1,-2 0,-1 -1,-2 -2,-3l0 0 0 0c-1,1 -2,2 -3,2 0,1 -1,1 -1,1l0 0 0 0 0 0 0 0 0 0 0 0 0 0 0 0 0 0 0 0 0 0 0 0 0 0 0 0 0 0 0 -1 0 0 0 0 0 0 0 0 0 0 0 0 0 0 -1 0 0 0 0 0 0 0 0 0 0 0 0 0 0 0 0 -1 0 0c0,0 0,0 0,0l0 0 0 0 0 0 0 0c1,-2 3,-4 5,-5 2,-2 5,-3 7,-6 1,2 1,4 1,6zm-21 23c1,1 2,2 3,3 1,-1 2,-2 3,-3 1,-2 2,-4 2,-6 1,-2 0,-4 -1,-6l0 0c-1,-2 -2,-3 -4,-4 -1,1 -3,2 -3,4l0 0c-2,2 -2,4 -2,6 0,2 1,4 2,6zm-5 0c2,1 4,2 6,2 -1,0 -1,-1 -2,-1 -1,-2 -2,-4 -2,-7 0,-2 0,-5 2,-7l0 0 0 0c0,0 -1,0 -1,-1 -1,-1 -3,-2 -5,-4 -1,3 -2,5 -3,7 0,2 0,4 1,6 1,2 3,3 4,5zm4 -14c0,0 0,0 0,0 1,-1 2,-2 4,-3l0 0 0 0c2,1 3,2 4,3 0,0 0,0 0,0 1,-1 1,-1 1,-1 0,-1 0,-2 -1,-3 -1,-1 -2,-3 -4,-4 -2,1 -3,3 -4,4 0,1 -1,2 -1,3 0,0 1,0 1,1zm-3 16c1,0 2,0 2,0 -1,0 -2,-1 -3,-1 -2,-2 -4,-3 -5,-5 -1,-2 -1,-5 -1,-7 1,-1 1,-1 1,-2 -1,-1 -3,-1 -4,-2 -2,-1 -4,-2 -7,-5 -1,1 -1,3 -1,4 0,5 3,9 6,12 3,3 8,5 12,6zm318 165l0 -231 -79 0c-31,0 -57,-25 -57,-56l0 -80 -316 0c-19,0 -34,15 -34,34l0 333 486 0z"/>
 </g>
</svg>
