<?xml version="1.0" encoding="UTF-8"?>
<!DOCTYPE svg PUBLIC "-//W3C//DTD SVG 1.1//EN" "http://www.w3.org/Graphics/SVG/1.1/DTD/svg11.dtd">
<!-- Creator: CorelDRAW X7 -->
<svg xmlns="http://www.w3.org/2000/svg" xml:space="preserve" width="15mm" height="15mm" version="1.1" style="shape-rendering:geometricPrecision; text-rendering:geometricPrecision; image-rendering:optimizeQuality; fill-rule:evenodd; clip-rule:evenodd"
viewBox="0 0 1500 1500"
 xmlns:xlink="http://www.w3.org/1999/xlink">
 <defs>
  <style type="text/css">
   <![CDATA[
    .fil0 {fill:#666666}
   ]]>
  </style>
 </defs>
 <g id="Layer_x0020_1">
  <metadata id="CorelCorpID_0Corel-Layer"/>
  <path class="fil0" d="M750 150c166,0 316,67 424,176 109,108 176,258 176,424 0,166 -67,316 -176,424 -108,109 -258,176 -424,176 -166,0 -316,-67 -424,-176 -109,-108 -176,-258 -176,-424 0,-166 67,-316 176,-424 108,-109 258,-176 424,-176zm-55 530l110 0 266 0c39,0 70,32 70,70l0 0c0,39 -31,70 -70,70l-266 0 -110 0 -266 0c-39,0 -70,-31 -70,-70l0 0c0,-38 31,-70 70,-70l266 0zm416 -291c-92,-93 -220,-150 -361,-150 -141,0 -269,57 -361,150 -93,92 -150,220 -150,361 0,141 57,269 150,361 92,93 220,150 361,150 141,0 269,-57 361,-150 93,-92 150,-220 150,-361 0,-141 -57,-269 -150,-361z"/>
 </g>
</svg>
