<?xml version="1.0" encoding="UTF-8"?>
<!DOCTYPE svg PUBLIC "-//W3C//DTD SVG 1.1//EN" "http://www.w3.org/Graphics/SVG/1.1/DTD/svg11.dtd">
<!-- Creator: CorelDRAW X7 -->
<svg xmlns="http://www.w3.org/2000/svg" xml:space="preserve" width="52mm" height="20mm" version="1.1" style="shape-rendering:geometricPrecision; text-rendering:geometricPrecision; image-rendering:optimizeQuality; fill-rule:evenodd; clip-rule:evenodd"
viewBox="0 0 5200 2000"
 xmlns:xlink="http://www.w3.org/1999/xlink">
 <defs>
  <style type="text/css">
   <![CDATA[
    .fil0 {fill:#4D4D4D}
    .fil2 {fill:#4D4D4D;fill-rule:nonzero}
    .fil1 {fill:white;fill-rule:nonzero}
   ]]>
  </style>
 </defs>
 <g id="Layer_x0020_1">
  <metadata id="CorelCorpID_0Corel-Layer"/>
  <g id="_2244386009248">
   <circle class="fil0" cx="1078" cy="1000" r="800"/>
   <polygon class="fil1" points="691,929 691,583 755,583 755,878 900,878 898,929 "/>
   <path id="1" class="fil1" d="M939 929l0 -260 62 0 0 260 -62 0zm0 -298l0 -52 62 0 0 52 -62 0z"/>
   <path id="2" class="fil1" d="M1138 929l-103 -260 65 0c3,7 11,29 24,66 14,37 23,62 27,76 9,26 16,45 20,59 0,0 1,-5 4,-15 2,-11 5,-20 7,-29 3,-9 4,-14 5,-16 0,0 7,-22 22,-65 14,-43 22,-69 25,-76l65 0 -98 260 -63 0z"/>
   <path id="3" class="fil1" d="M1331 929l0 -260 52 0 8 40c17,-27 42,-41 74,-41 7,0 13,0 17,1l-1 52c-6,-1 -13,-2 -20,-2 -23,0 -40,6 -51,18 -11,13 -17,29 -17,51l0 141 -62 0z"/>
   <path id="4" class="fil1" d="M1630 887c21,0 37,-8 48,-23 10,-16 15,-37 15,-66 0,-29 -5,-51 -15,-66 -11,-15 -27,-22 -48,-22 -21,0 -37,7 -47,22 -11,16 -16,38 -16,66 0,29 5,50 16,66 10,15 26,23 47,23zm-1 47c-39,0 -69,-13 -91,-38 -22,-25 -33,-57 -33,-98 0,-42 11,-75 33,-99 22,-24 53,-36 93,-36 39,0 69,12 91,37 22,24 33,57 33,98 0,42 -11,74 -33,99 -22,24 -53,37 -93,37z"/>
   <path class="fil2" d="M2039 943c-34,0 -60,-12 -80,-37 -19,-25 -29,-58 -29,-100 0,-40 10,-73 29,-97 19,-25 46,-37 80,-37 37,0 63,13 78,39 -2,-15 -3,-30 -3,-44l0 -84 62 -4 0 359 -53 0 -7 -35c-3,4 -5,8 -7,11 -3,3 -6,6 -11,10 -4,4 -9,7 -14,10 -5,2 -11,4 -19,6 -8,2 -17,3 -26,3zm15 -47c41,0 62,-28 63,-85 0,-32 -6,-55 -16,-70 -11,-14 -27,-22 -48,-22 -19,0 -34,8 -45,23 -11,15 -16,37 -16,65 0,29 5,51 16,66 11,15 27,23 46,23z"/>
   <path id="1" class="fil2" d="M2359 943c-41,0 -74,-12 -97,-36 -23,-24 -35,-57 -35,-100 0,-41 11,-74 33,-98 22,-24 52,-37 89,-37 36,0 64,11 84,34 19,22 29,52 29,89 0,2 0,7 0,13 0,6 0,10 0,13l-172 0c0,24 7,43 19,56 13,14 31,20 53,20 28,0 55,-7 81,-22l9 44c-26,16 -57,24 -93,24zm-68 -161l113 0c0,-21 -5,-37 -14,-49 -10,-11 -23,-17 -40,-17 -16,0 -30,6 -41,17 -10,11 -17,27 -18,49z"/>
   <path id="2" class="fil2" d="M1947 1457l0 -347 128 0c17,0 32,1 45,3 13,1 25,4 37,8 11,4 21,10 28,17 7,7 13,16 17,28 4,11 6,25 6,40 0,46 -21,76 -62,91 8,10 19,27 31,53l52 107 -70 0 -41 -90c-15,-33 -24,-52 -28,-58 -3,0 -11,0 -26,0l-54 -1 0 149 -63 0zm134 -195c24,0 42,-4 52,-13 11,-8 16,-22 16,-42 0,-17 -5,-29 -16,-37 -11,-8 -27,-12 -50,-12l-73 0 0 104c2,0 14,0 35,0 21,0 33,0 36,0z"/>
   <path id="3" class="fil2" d="M2391 1462c-41,0 -74,-12 -97,-36 -23,-24 -35,-57 -35,-100 0,-41 11,-74 33,-98 22,-24 52,-37 90,-37 35,0 63,11 83,34 20,22 29,52 29,89 0,2 0,7 0,13 0,6 0,10 0,13l-172 0c0,24 7,43 19,56 13,14 31,20 53,20 28,0 55,-7 82,-22l8 44c-26,16 -57,24 -93,24zm-68 -161l113 0c0,-21 -5,-37 -14,-49 -10,-11 -23,-17 -40,-17 -16,0 -30,6 -41,17 -10,11 -17,27 -18,49z"/>
   <path id="4" class="fil2" d="M2658 1462c-39,0 -70,-12 -92,-35 -22,-24 -34,-58 -34,-102 0,-42 12,-75 35,-99 24,-23 54,-35 92,-35 30,0 56,7 77,20l-15 44c-21,-11 -41,-17 -59,-17 -21,0 -38,8 -50,23 -12,15 -18,36 -18,65 0,29 6,51 18,66 12,15 29,23 50,23 23,0 45,-7 66,-20l6 47c-11,7 -22,12 -34,15 -12,3 -26,5 -42,5z"/>
   <path id="5" class="fil2" d="M2874 1461c-18,0 -33,-3 -45,-7 -11,-4 -21,-11 -27,-20 -7,-9 -12,-20 -15,-32 -2,-13 -4,-28 -4,-47l0 -253 62 -4 0 256c0,23 3,39 9,47 5,8 16,12 32,12 8,0 18,-1 30,-2l1 44c0,0 -2,0 -5,1 -4,1 -8,1 -11,2 -3,1 -8,1 -13,2 -5,0 -10,1 -14,1z"/>
   <path id="6" class="fil2" d="M3016 1462c-24,0 -43,-7 -58,-20 -15,-13 -22,-32 -22,-57 0,-27 9,-47 26,-60 18,-13 44,-22 80,-25 5,-1 10,-1 16,-2 5,0 12,-1 19,-2 7,0 13,-1 17,-1l0 -14c0,-16 -4,-27 -11,-35 -7,-7 -18,-10 -33,-10 -21,0 -47,6 -78,18 -1,-1 -3,-8 -8,-22 -5,-14 -8,-21 -8,-21 31,-13 64,-20 99,-20 35,0 61,8 76,23 16,15 24,40 24,74l0 169 -45 0c-1,-1 -2,-6 -6,-16 -3,-10 -5,-15 -5,-16 -13,13 -25,22 -38,28 -12,6 -27,9 -45,9zm17 -44c15,0 27,-3 38,-10 10,-7 18,-15 22,-25l0 -50c0,0 -4,0 -12,1 -8,0 -12,1 -13,1 -25,2 -43,7 -55,14 -11,7 -17,19 -17,35 0,11 3,19 10,25 6,6 15,9 27,9z"/>
   <path id="7" class="fil2" d="M3218 1457l0 -260 50 0 7 34c3,-4 6,-8 9,-11 3,-3 7,-6 12,-10 5,-4 11,-7 16,-10 6,-2 13,-5 22,-6 8,-2 17,-3 27,-3 20,0 37,4 49,13 12,8 21,18 26,29 9,-13 21,-24 36,-31 15,-7 31,-11 50,-11 29,0 51,9 65,25 14,17 21,42 21,75l0 166 -62 0 0 -147c0,-26 -3,-44 -9,-55 -5,-11 -16,-17 -32,-17 -24,0 -41,11 -51,32 -5,10 -8,22 -9,35l0 152 -62 0 0 -150c0,-23 -3,-41 -10,-52 -6,-11 -17,-17 -33,-17 -13,0 -24,3 -34,10 -9,7 -16,15 -21,26 -4,16 -5,35 -5,57l0 126 -62 0z"/>
   <path id="8" class="fil2" d="M3737 1462c-24,0 -43,-7 -58,-20 -15,-13 -22,-32 -22,-57 0,-27 8,-47 26,-60 18,-13 44,-22 80,-25 5,-1 10,-1 16,-2 5,0 12,-1 19,-2 7,0 13,-1 17,-1l0 -14c0,-16 -4,-27 -11,-35 -7,-7 -19,-10 -33,-10 -21,0 -48,6 -78,18 -1,-1 -3,-8 -8,-22 -5,-14 -8,-21 -8,-21 30,-13 64,-20 99,-20 35,0 60,8 76,23 16,15 24,40 24,74l0 169 -46 0c0,-1 -1,-6 -5,-16 -3,-10 -5,-15 -5,-16 -13,13 -25,22 -38,28 -12,6 -27,9 -45,9zm17 -44c14,0 27,-3 38,-10 10,-7 18,-15 22,-25l0 -50c0,0 -4,0 -12,1 -8,0 -12,1 -13,1 -25,2 -43,7 -55,14 -11,7 -17,19 -17,35 0,11 3,19 10,25 6,6 15,9 27,9z"/>
   <path id="9" class="fil2" d="M4010 1549l29 -90 34 0 -13 90 -50 0zm42 -87c-40,0 -70,-12 -93,-35 -22,-24 -33,-58 -33,-102 0,-42 12,-75 35,-99 23,-23 54,-35 92,-35 30,0 56,7 77,20l-15 44c-21,-11 -41,-17 -60,-17 -21,0 -37,8 -49,23 -12,15 -18,36 -18,65 0,29 6,51 18,66 12,15 28,23 50,23 23,0 45,-7 66,-20l5 47c-10,7 -22,12 -33,15 -12,3 -26,5 -42,5z"/>
   <path id="10" class="fil2" d="M4208 1162c0,-5 0,-11 1,-15 0,-5 1,-10 3,-15 2,-5 4,-10 7,-13 2,-4 6,-7 12,-10 5,-2 11,-3 18,-3 9,0 19,1 30,5 11,3 21,6 30,10 8,3 13,5 16,5 7,0 11,-7 11,-20l34 0c0,5 0,10 0,14 0,5 -1,10 -3,15 -1,6 -4,10 -6,14 -3,4 -7,7 -12,9 -5,3 -11,4 -18,4 -9,0 -23,-3 -42,-10 -19,-7 -30,-11 -35,-11 -8,0 -12,7 -12,21l-34 0zm82 253c21,0 36,-8 47,-23 10,-15 16,-37 16,-66 0,-28 -6,-50 -16,-65 -11,-16 -27,-23 -48,-23 -21,0 -36,7 -47,23 -11,15 -16,37 -16,66 0,28 5,50 16,65 11,15 27,23 48,23zm-2 47c-38,0 -69,-12 -91,-37 -22,-25 -33,-58 -33,-99 0,-41 11,-74 33,-99 22,-24 53,-36 94,-36 38,0 69,12 91,37 22,25 33,58 33,98 0,42 -12,75 -34,99 -22,25 -53,37 -93,37z"/>
   <path id="11" class="fil2" d="M4585 1462c-42,0 -74,-12 -97,-36 -24,-24 -35,-57 -35,-100 0,-41 11,-74 33,-98 21,-24 51,-37 89,-37 36,0 64,11 83,34 20,22 30,52 30,89 0,2 0,7 0,13 0,6 0,10 0,13l-173 0c1,24 7,43 20,56 13,14 30,20 52,20 29,0 56,-7 82,-22l9 44c-26,16 -57,24 -93,24zm-69 -161l114 0c0,-21 -5,-37 -15,-49 -9,-11 -23,-17 -40,-17 -16,0 -29,6 -40,17 -11,11 -17,27 -19,49z"/>
   <path id="12" class="fil2" d="M4821 1462c-38,0 -69,-7 -92,-20l7 -46c10,5 23,10 39,15 16,4 31,7 44,7 14,0 25,-3 32,-8 8,-5 12,-13 12,-23 0,-9 -4,-16 -11,-21 -7,-5 -21,-12 -41,-19 -7,-3 -11,-4 -13,-5 -24,-10 -41,-20 -52,-31 -11,-12 -16,-27 -16,-47 0,-23 9,-41 26,-54 17,-13 41,-19 71,-19 33,0 62,6 87,19l-15 43c-25,-12 -48,-18 -71,-18 -12,0 -22,2 -29,7 -7,4 -10,10 -10,19 0,8 3,14 10,18 7,5 20,11 40,18 0,0 2,1 6,2 3,1 6,2 8,3 24,9 41,19 52,31 11,12 17,28 17,47 0,26 -9,46 -26,60 -18,15 -43,22 -75,22z"/>
   <path class="fil2" d="M1994 1747c-20,0 -36,-6 -47,-18 -11,-12 -17,-29 -17,-51 0,-22 6,-39 18,-51 12,-12 27,-18 47,-18 15,0 28,4 39,10l-8 23c-10,-6 -21,-9 -30,-9 -11,0 -19,4 -25,12 -6,7 -9,18 -9,33 0,15 3,26 9,34 6,8 14,11 25,11 12,0 23,-3 34,-10l3 24c-6,4 -12,6 -18,8 -5,2 -13,2 -21,2z"/>
   <path id="1" class="fil2" d="M2115 1723c10,0 18,-3 24,-11 5,-8 8,-19 8,-34 0,-14 -3,-26 -8,-33 -6,-8 -14,-12 -25,-12 -10,0 -18,4 -24,12 -5,7 -8,19 -8,33 0,15 3,26 8,34 6,8 14,11 25,11zm-1 24c-20,0 -35,-6 -47,-19 -11,-12 -16,-29 -16,-50 0,-21 5,-38 16,-50 12,-13 28,-19 48,-19 20,0 35,7 47,19 11,13 16,29 16,50 0,21 -5,38 -17,51 -11,12 -27,18 -47,18z"/>
   <path id="2" class="fil2" d="M2204 1745l0 -133 26 0 3 17c2,-2 3,-3 5,-5 1,-2 3,-3 6,-5 3,-2 5,-4 8,-5 3,-1 7,-3 11,-3 5,-1 9,-2 14,-2 11,0 19,2 25,7 7,4 11,9 14,15 4,-7 10,-13 18,-16 8,-4 16,-6 25,-6 15,0 27,5 34,13 7,9 10,21 10,38l0 85 -31 0 0 -75c0,-13 -2,-23 -5,-28 -3,-6 -8,-9 -16,-9 -12,0 -21,6 -27,17 -2,5 -3,11 -4,17l0 78 -32 0 0 -77c0,-12 -1,-20 -4,-26 -3,-6 -9,-9 -17,-9 -7,0 -13,2 -18,5 -4,4 -8,8 -11,14 -1,8 -2,17 -2,29l0 64 -32 0z"/>
   <path id="3" class="fil2" d="M2434 1800l0 -188 28 0 3 19c4,-7 10,-12 17,-16 7,-4 15,-6 24,-6 11,0 21,3 29,9 8,6 14,14 19,25 4,10 6,22 6,35 0,21 -5,37 -15,50 -10,13 -23,19 -40,19 -9,0 -16,-1 -23,-5 -7,-3 -12,-7 -17,-13 1,11 1,18 1,19l0 50 -32 2zm64 -77c9,0 17,-4 22,-11 6,-8 8,-20 8,-34 0,-15 -2,-26 -8,-34 -5,-7 -13,-11 -23,-11 -20,0 -31,14 -31,43 0,16 2,28 8,36 5,8 13,11 24,11z"/>
   <path id="4" class="fil2" d="M2632 1747c-9,0 -16,-1 -22,-3 -6,-3 -11,-6 -15,-11 -3,-4 -5,-10 -7,-16 -1,-7 -2,-15 -2,-24l0 -129 32 -2 0 130c0,12 1,20 4,24 3,5 8,7 16,7 4,0 9,-1 16,-2l0 23c0,0 -1,0 -2,0 -2,1 -4,1 -6,1 -2,1 -4,1 -6,1 -3,1 -6,1 -8,1z"/>
   <path id="5" class="fil2" d="M2705 1747c-12,0 -22,-3 -30,-10 -7,-7 -11,-16 -11,-29 0,-14 4,-24 13,-31 9,-6 23,-10 41,-12 3,-1 5,-1 8,-1 3,0 6,-1 10,-1 4,0 6,-1 8,-1l0 -7c0,-8 -1,-14 -5,-18 -4,-3 -9,-5 -17,-5 -11,0 -24,3 -40,9 0,0 -1,-4 -4,-11 -2,-7 -4,-11 -4,-11 16,-6 33,-10 51,-10 18,0 31,4 39,12 8,8 12,20 12,38l0 86 -23 0c-1,0 -1,-3 -3,-8 -2,-5 -3,-8 -3,-8 -6,6 -13,11 -19,14 -6,3 -14,4 -23,4zm9 -22c7,0 13,-2 19,-5 5,-4 9,-8 11,-13l0 -25c0,0 -2,0 -6,0 -4,0 -6,0 -6,0 -13,2 -23,4 -28,8 -6,3 -9,9 -9,18 0,5 1,9 5,13 3,3 8,4 14,4z"/>
   <path id="6" class="fil2" d="M2808 1745l0 -133 32 0 0 133 -32 0zm0 -152l0 -27 32 0 0 27 -32 0z"/>
   <path id="7" class="fil2" d="M2873 1745l0 -133 25 0 4 17c13,-13 28,-20 45,-20 15,0 27,5 34,14 8,8 12,21 12,38l0 84 -32 0 0 -80c0,-11 -2,-19 -5,-24 -3,-5 -9,-8 -18,-8 -7,0 -13,2 -19,5 -5,4 -10,8 -12,14 -2,6 -2,15 -2,28l0 65 -32 0z"/>
   <path id="8" class="fil2" d="M3077 1747c-9,0 -17,-1 -23,-3 -5,-3 -10,-6 -14,-11 -3,-4 -5,-10 -7,-16 -1,-6 -2,-14 -2,-23l0 -62 -22 0 2 -17 22 -3 10 -35 20 -1 0 36 33 0 0 20 -33 0 0 63c0,10 1,17 4,21 3,4 8,7 16,7 5,0 10,-1 15,-2l1 23c-1,0 -1,0 -3,1 -2,0 -4,0 -5,1 -2,0 -4,0 -7,0 -2,1 -5,1 -7,1z"/>
   <path id="9" class="fil2" d="M3163 1747c-19,0 -35,-3 -47,-10l4 -23c5,3 12,5 20,7 8,3 15,4 22,4 7,0 13,-2 17,-4 3,-3 5,-7 5,-12 0,-4 -1,-8 -5,-10 -4,-3 -11,-6 -21,-10 -3,-2 -6,-2 -7,-3 -12,-5 -21,-10 -26,-16 -6,-6 -8,-13 -8,-23 0,-12 4,-22 13,-28 9,-7 21,-10 36,-10 17,0 32,3 45,10l-8 22c-13,-6 -25,-9 -36,-9 -6,0 -11,1 -15,3 -4,2 -5,5 -5,10 0,4 1,7 5,9 3,3 10,6 20,9 0,0 1,1 3,1 2,1 3,1 4,2 12,4 21,10 27,16 6,6 9,14 9,24 0,13 -5,23 -14,30 -9,8 -21,11 -38,11z"/>
   <path id="10" class="fil2" d="M3376 1747c-9,0 -17,-2 -25,-6 -7,-3 -12,-8 -16,-13l-3 17 -27 0 0 -181 31 -2 0 41c0,8 0,17 0,27 10,-14 24,-21 40,-21 17,0 31,6 40,19 10,13 15,29 15,49 0,21 -5,38 -15,51 -10,13 -24,19 -40,19zm-8 -24c10,0 17,-3 23,-11 5,-8 8,-20 8,-34 0,-15 -3,-26 -8,-34 -6,-7 -13,-11 -22,-11 -22,0 -33,14 -33,43 0,16 3,28 8,36 6,8 14,11 24,11z"/>
   <path id="11" class="fil2" d="M3514 1723c11,0 19,-3 24,-11 6,-8 8,-19 8,-34 0,-14 -2,-26 -8,-33 -5,-8 -13,-12 -24,-12 -11,0 -19,4 -24,12 -6,7 -8,19 -8,33 0,15 2,26 8,34 5,8 13,11 24,11zm-1 24c-19,0 -35,-6 -46,-19 -11,-12 -17,-29 -17,-50 0,-21 6,-38 17,-50 11,-13 27,-19 48,-19 19,0 35,7 46,19 11,13 17,29 17,50 0,21 -6,38 -17,51 -12,12 -27,18 -48,18z"/>
   <path id="12" class="fil2" d="M3661 1723c11,0 19,-3 24,-11 6,-8 8,-19 8,-34 0,-14 -2,-26 -8,-33 -5,-8 -13,-12 -24,-12 -11,0 -19,4 -24,12 -5,7 -8,19 -8,33 0,15 3,26 8,34 5,8 14,11 24,11zm-1 24c-19,0 -35,-6 -46,-19 -11,-12 -17,-29 -17,-50 0,-21 6,-38 17,-50 11,-13 27,-19 48,-19 20,0 35,7 46,19 11,13 17,29 17,50 0,21 -6,38 -17,51 -11,12 -27,18 -48,18z"/>
   <path id="13" class="fil2" d="M3751 1745l0 -181 31 -2 0 81 0 27c0,0 1,-1 2,-3 2,-1 3,-2 3,-2 4,-5 9,-11 14,-16 5,-6 12,-13 20,-21 8,-8 13,-13 15,-16l38 0 -55 57 58 76 -38 0 -43 -60 -14 10 0 50 -31 0z"/>
  </g>
 </g>
</svg>
